<svg version="1.1" id="Layer_1" xmlns="http://www.w3.org/2000/svg" xmlns:xlink="http://www.w3.org/1999/xlink" x="0px" y="0px"
	 width="100%" viewBox="0 0 1344 1454" enable-background="new 0 0 1344 1454" xml:space="preserve">
<path fill="#FEFDFD" opacity="1.000000" stroke="none" 
	d="
M720.000000,1455.000000 
	C480.000031,1455.000000 240.500092,1455.000000 1.000096,1455.000000 
	C1.000064,970.333435 1.000064,485.666931 1.000032,1.000292 
	C448.999786,1.000194 896.999573,1.000194 1344.999512,1.000097 
	C1344.999756,485.666382 1344.999756,970.332764 1344.999878,1454.999512 
	C1136.833374,1455.000000 928.666687,1455.000000 720.000000,1455.000000 
M581.531250,232.338257 
	C581.181702,231.250778 580.904968,230.133347 580.471802,229.080246 
	C572.632629,210.021866 565.073914,190.839676 556.780762,171.980515 
	C553.210815,163.862091 548.418823,156.218643 543.607422,148.728455 
	C539.811462,142.819046 532.142456,141.026764 527.017761,144.721268 
	C523.053345,147.579346 519.738770,151.365875 516.256897,154.860733 
	C509.246490,161.897324 502.686127,169.430328 495.273163,176.006805 
	C483.461700,186.485474 471.907410,197.232651 465.461182,211.864761 
	C461.177490,221.588028 457.645599,231.922256 459.940552,243.688766 
	C457.695831,251.141693 458.739990,255.499268 464.390564,259.774323 
	C477.656189,269.810730 491.097748,279.614655 504.358704,289.657135 
	C516.151733,298.588013 527.869751,307.621613 539.489441,316.776764 
	C552.768738,327.239471 565.728333,338.114166 579.142700,348.397797 
	C597.256531,362.284088 615.642456,375.816864 633.996399,389.386688 
	C636.139893,390.971558 638.820190,391.830475 642.029907,393.408569 
	C621.581482,339.083191 601.626709,286.069458 581.531250,232.338257 
M611.107117,210.690689 
	C611.111267,211.189713 610.971924,211.744232 611.140320,212.179703 
	C616.456177,225.921951 621.837402,239.638962 627.132385,253.389221 
	C631.674927,265.185791 636.074890,277.037292 640.628784,288.829407 
	C644.730530,299.450806 648.952148,310.025940 653.127502,320.618896 
	C655.659973,327.043884 658.205139,333.463867 661.164612,340.948303 
	C662.425415,338.417389 663.297546,336.907776 663.952332,335.309143 
	C666.315674,329.539001 668.643372,323.753601 670.917542,317.947723 
	C685.531738,280.638428 700.128113,243.322189 715.058960,205.364136 
	C717.051392,201.203171 719.309448,197.146286 720.987976,192.862320 
	C726.691650,178.305313 732.114746,163.638397 737.816711,149.080688 
	C739.421753,144.982864 738.876221,141.304169 736.698486,137.786896 
	C735.309692,135.543793 733.646973,133.435516 731.888672,131.461304 
	C714.005066,111.381264 690.326599,99.448326 667.649414,86.163422 
	C665.605835,84.966217 661.874695,84.912720 659.721130,85.960205 
	C652.772644,89.339867 646.031067,93.224670 639.506531,97.380768 
	C621.665039,108.745674 603.556824,119.781548 589.100647,135.645447 
	C585.753906,139.318054 583.655945,142.565964 586.208557,147.953888 
	C590.414124,156.831024 593.785889,166.106094 597.437256,175.242157 
	C602.048645,186.780396 606.588135,198.347382 611.107117,210.690689 
M607.659668,995.801270 
	C616.731567,988.612976 625.803467,981.424683 635.832214,973.478149 
	C625.235779,964.737183 615.869568,956.508118 605.988953,948.951782 
	C571.766724,922.779785 537.376465,896.827271 503.009613,870.844849 
	C500.517578,868.960815 497.701324,867.505615 494.761414,865.251160 
	C490.722076,861.785767 486.872925,858.064819 482.613556,854.895020 
	C445.362549,827.172974 407.906952,799.724304 370.775696,771.843323 
	C338.814880,747.844849 307.218292,723.361694 275.414886,699.152893 
	C269.171722,694.400696 262.718994,689.923706 255.863297,684.957886 
	C254.604935,687.581055 253.677979,689.098083 253.119904,690.740601 
	C247.170105,708.250977 246.653305,726.699829 244.206528,744.784241 
	C242.887268,754.535034 243.060898,764.566223 243.388962,774.443481 
	C243.911835,790.186523 243.759247,806.140259 246.398865,821.576233 
	C249.584167,840.203552 254.756287,858.574951 260.269379,876.691650 
	C264.139130,889.408264 270.016754,901.513733 275.282532,914.556091 
	C278.455780,921.102783 284.469238,924.763367 290.001556,928.852295 
	C307.987274,942.145325 326.029846,955.361633 344.084625,968.560791 
	C353.015930,975.090271 362.021759,981.517822 371.221039,988.628845 
	C374.821899,991.691162 378.237610,995.009155 382.054840,997.772583 
	C401.151184,1011.596863 420.347504,1025.283081 439.519043,1039.003418 
	C458.237457,1052.399414 477.034607,1065.687134 495.633392,1079.246948 
	C499.018433,1081.714722 501.089081,1080.750244 503.831787,1078.559448 
	C534.391541,1054.149658 565.021118,1029.827271 595.610596,1005.454712 
	C599.472717,1002.377563 603.213623,999.148376 607.659668,995.801270 
M799.049927,556.115417 
	C794.378113,552.129822 789.838745,547.974182 784.998657,544.204590 
	C779.749390,540.116394 774.081543,536.565247 768.835205,532.473511 
	C734.828308,505.950897 700.896362,479.332123 666.913513,452.778595 
	C661.446716,448.506958 660.533325,448.707458 655.557129,452.971008 
	C644.250977,462.657959 633.166138,472.641357 621.419556,481.768372 
	C596.569031,501.077118 571.320435,519.872742 546.313538,538.981506 
	C541.347717,542.776123 536.733154,547.030396 531.275940,551.202515 
	C525.076172,553.662048 520.808105,558.374939 516.159607,563.359009 
	C520.885498,567.313416 524.994324,570.961853 529.317200,574.335938 
	C571.336426,607.133606 613.389709,639.887756 655.437988,672.648132 
	C663.269775,678.749878 663.968079,678.476990 672.045654,672.248962 
	C711.744629,641.640198 751.572815,611.199036 791.291077,580.615173 
	C797.421936,575.894348 803.218994,570.740051 810.121216,564.994812 
	C805.776550,561.668518 802.551086,559.199097 799.049927,556.115417 
M345.500854,1013.495422 
	C327.364502,1000.251160 309.222290,987.014954 291.093475,973.760376 
	C273.082031,960.591614 255.084122,947.404419 236.359131,933.697327 
	C235.336395,937.068420 234.165054,938.948669 234.342453,940.691589 
	C235.063965,947.779907 236.167664,954.830750 237.188400,961.887024 
	C239.131027,975.316345 240.382568,988.899231 243.265244,1002.125366 
	C246.823563,1018.451477 251.276810,1034.625610 256.205261,1050.599487 
	C262.779205,1071.906494 271.260895,1092.577637 282.669617,1111.745239 
	C294.510040,1131.638184 307.349792,1150.946899 320.141418,1170.253418 
	C322.472748,1173.772217 326.671997,1176.053467 330.175049,1179.589966 
	C335.521454,1184.856812 340.505981,1190.564575 346.284180,1195.305176 
	C361.764404,1208.005615 377.180145,1220.849976 393.384125,1232.584106 
	C409.470306,1244.233154 426.450684,1254.653076 443.137695,1265.459595 
	C445.242767,1266.822754 447.947205,1267.260376 450.956635,1268.334839 
	C444.044983,1240.323486 442.151031,1213.250977 445.800415,1185.643433 
	C449.474091,1157.852417 460.802612,1133.457764 477.884216,1109.795654 
	C433.948547,1076.865723 390.547607,1044.595947 345.500854,1013.495422 
M988.291565,1005.199158 
	C977.164429,1012.671387 965.781860,1019.794556 954.973083,1027.702026 
	C940.647705,1038.182007 926.842590,1049.369873 912.683655,1060.081421 
	C893.836731,1074.339478 874.879517,1088.451904 855.938171,1102.584595 
	C849.071777,1107.707764 851.028870,1109.626709 854.374817,1115.848511 
	C859.815002,1125.964722 866.063477,1135.792603 870.195068,1146.431885 
	C876.491882,1162.646240 880.314697,1179.652344 880.997559,1197.187134 
	C881.394775,1207.388062 882.818848,1217.706177 881.787903,1227.767334 
	C880.378784,1241.519409 877.073242,1255.077271 874.482239,1269.256958 
	C875.863525,1268.705933 877.253235,1268.373535 878.404846,1267.658081 
	C891.116943,1259.759888 904.162842,1252.329590 916.388123,1243.734131 
	C933.797546,1231.493408 951.037170,1218.923462 967.499451,1205.455200 
	C978.071533,1196.805786 987.115662,1186.288452 997.511719,1176.607056 
	C999.348022,1174.475220 1001.303223,1172.433716 1003.002747,1170.197876 
	C1024.646973,1141.722168 1043.732910,1111.708374 1058.001221,1078.786133 
	C1067.708618,1056.387573 1075.666260,1033.426514 1079.970947,1009.347595 
	C1082.840454,993.295593 1085.415283,977.184448 1087.751953,961.046143 
	C1089.084595,951.841675 1089.674072,942.529602 1090.696045,932.285706 
	C1087.329956,933.877686 1084.522339,934.755005 1082.231812,936.367065 
	C1072.457275,943.246887 1062.881104,950.407715 1053.148560,957.348206 
	C1033.853882,971.107544 1014.469299,984.741333 995.220032,998.563599 
	C992.835876,1000.275696 991.048706,1002.819153 988.291565,1005.199158 
M949.643616,990.723877 
	C950.852295,989.887695 952.088501,989.088440 953.265503,988.209839 
	C976.273132,971.034241 999.387024,953.997986 1022.219360,936.592346 
	C1031.105469,929.818176 1039.353882,922.207397 1048.523315,914.714600 
	C1050.998657,910.799927 1053.867798,907.077393 1055.887207,902.940125 
	C1071.903564,870.127014 1079.801880,835.200073 1081.901001,798.937012 
	C1083.392578,773.169861 1081.501953,747.538330 1077.073608,722.092590 
	C1075.208252,711.374207 1073.859741,700.564026 1071.895142,689.865540 
	C1070.670410,683.196167 1067.901001,682.178223 1062.475830,686.410217 
	C1053.234375,693.619019 1044.467285,701.442993 1035.136597,708.528870 
	C1018.849426,720.897522 1002.105896,732.667236 985.871643,745.103088 
	C936.029602,783.283325 886.318298,821.634521 836.643250,860.031921 
	C833.963318,862.103394 832.079468,865.204712 829.111511,867.905823 
	C826.980957,869.160645 824.674683,870.191345 822.745972,871.703735 
	C790.771790,896.775818 758.882690,921.956543 726.886230,947.000183 
	C716.188354,955.373474 705.243408,963.431030 693.860962,972.049683 
	C697.147217,975.541443 699.902039,979.154358 703.318298,981.962952 
	C711.790527,988.928223 720.646545,995.424316 729.203308,1002.289734 
	C759.462524,1026.568115 789.717224,1050.853149 819.840393,1075.299805 
	C826.816467,1080.961426 827.399841,1081.176514 834.310608,1075.923828 
	C846.437256,1066.706909 858.655884,1057.609619 870.903503,1048.553589 
	C896.911560,1029.322998 922.963196,1010.151245 949.643616,990.723877 
M1026.594849,654.532227 
	C1031.311523,639.585693 1035.657349,624.666199 1037.265015,608.869385 
	C1039.699463,584.948425 1036.049316,562.584717 1022.682739,542.543640 
	C1015.178894,531.292664 1006.359131,520.880493 997.691711,510.456726 
	C990.813965,502.185272 983.338318,494.403442 975.976868,486.545837 
	C973.484741,483.885742 970.786255,483.094421 967.336243,485.939270 
	C956.940979,494.511230 946.406311,502.927216 935.688232,511.091827 
	C915.296692,526.625244 894.571655,541.723999 874.291077,557.399170 
	C842.159668,582.234131 810.256958,607.365540 778.348877,632.487549 
	C776.382202,634.035950 775.212952,636.597107 772.944885,638.781982 
	C769.904724,640.418518 766.599426,641.700989 763.866577,643.747742 
	C742.957520,659.407898 722.137451,675.187317 701.352417,691.011902 
	C698.262451,693.364502 695.500977,696.148560 692.466614,698.840271 
	C696.801392,702.108643 700.470337,704.702454 703.951538,707.527588 
	C727.475342,726.619263 750.921021,745.807251 774.468567,764.869629 
	C793.489624,780.267578 812.646790,795.497559 831.673340,810.888794 
	C835.289307,813.813782 838.503723,815.187988 842.538818,811.484558 
	C844.962524,809.260010 848.092712,807.827332 850.746399,805.827759 
	C888.627747,777.284180 926.615540,748.878967 964.270203,720.039062 
	C977.373108,710.003540 989.544128,698.759399 1002.311462,688.275146 
	C1013.257935,679.286133 1022.565186,669.250610 1026.594849,654.532227 
M559.887329,642.111389 
	C557.382324,639.921936 554.984741,637.593506 552.356140,635.564148 
	C517.576843,608.713379 482.856873,581.784363 447.932556,555.123169 
	C419.786072,533.636230 391.413879,512.443970 363.060699,491.229462 
	C358.740906,487.997253 354.158905,484.987274 349.326080,482.640869 
	C347.707825,481.855164 344.478729,482.850464 342.791199,484.110321 
	C340.359467,485.925720 338.553101,488.642426 336.671265,491.119934 
	C327.410248,503.312622 318.117676,515.483215 309.014435,527.793396 
	C295.064209,546.657959 285.229828,567.175659 285.230133,591.229919 
	C285.230255,601.102661 284.888855,611.185547 286.700043,620.796509 
	C289.121887,633.647461 293.466248,646.138000 297.021942,658.772888 
	C300.023163,669.437500 306.560150,677.839478 314.695465,684.949707 
	C321.159088,690.598755 328.165222,695.627136 335.205322,701.580139 
	C348.760101,711.727539 362.373627,721.797607 375.858215,732.037476 
	C410.468567,758.319824 445.063599,784.623047 479.544708,811.074402 
	C483.854187,814.380249 487.405090,814.690552 491.448792,811.098206 
	C493.559326,809.223206 495.913513,807.622803 498.153717,805.893311 
	C538.748779,774.552551 579.377869,743.255615 619.891846,711.810364 
	C624.679688,708.094177 628.835815,703.564026 634.013916,698.730591 
	C608.855774,679.650940 584.504761,661.183472 559.887329,642.111389 
M661.991211,996.036133 
	C659.823608,997.579163 657.589417,999.037292 655.498474,1000.678040 
	C626.951843,1023.079895 598.424438,1045.506348 569.893433,1067.928101 
	C545.713928,1086.930054 521.571960,1106.004517 502.920013,1130.852783 
	C487.447296,1151.465576 478.086578,1174.511719 477.327545,1200.493652 
	C476.990204,1212.042480 476.648987,1223.788696 478.339691,1235.142944 
	C479.994598,1246.256836 483.804108,1257.131104 487.437500,1267.849609 
	C492.505127,1282.798950 501.164124,1295.776978 511.868958,1307.268799 
	C526.599426,1323.082275 545.219788,1332.955811 564.943054,1341.034668 
	C596.611572,1354.006592 628.855774,1365.732056 657.772949,1384.637085 
	C659.963989,1386.069580 663.839478,1384.925537 667.616516,1384.804688 
	C668.700867,1384.056396 669.770569,1383.285645 670.871765,1382.563110 
	C689.153870,1370.567261 708.267517,1360.178711 728.434631,1351.628906 
	C746.956177,1343.776733 765.464722,1335.804688 783.493408,1326.902100 
	C805.347046,1316.110840 821.431091,1299.005371 832.994629,1277.639893 
	C845.044434,1255.375977 850.226013,1231.665894 849.152771,1206.285156 
	C848.388855,1188.220337 844.875305,1171.074951 837.257019,1154.683228 
	C825.392090,1129.154419 807.079895,1108.767944 785.755432,1091.055908 
	C763.468079,1072.543945 740.439392,1054.927246 717.887939,1036.729492 
	C702.210510,1024.078857 686.821838,1011.070923 671.226440,998.317688 
	C668.822449,996.351746 666.469482,993.232056 661.991211,996.036133 
M626.920288,427.570526 
	C615.162720,418.471466 603.471008,409.285614 591.631165,400.294891 
	C576.084900,388.489624 560.443665,376.808838 544.803345,365.128082 
	C526.112488,351.169128 507.448151,337.173096 488.642975,323.369385 
	C473.437256,312.207794 458.007904,301.351288 442.756134,290.251801 
	C439.923889,288.190674 437.134491,287.173004 434.259521,289.498505 
	C427.646271,294.847748 421.126862,300.319580 414.708710,305.901886 
	C406.420197,313.110962 398.568024,320.852539 389.995087,327.697388 
	C371.117859,342.769440 359.834778,361.475128 360.079651,386.222900 
	C360.155396,393.878296 359.658478,401.561981 360.156616,409.184814 
	C360.796204,418.972412 361.763214,428.782776 363.429321,438.438324 
	C364.137360,442.541687 366.139069,447.116425 369.027252,450.000397 
	C374.557587,455.522644 381.076965,460.073639 387.300720,464.879028 
	C419.073212,489.410583 450.911621,513.856934 482.636353,538.449890 
	C486.053894,541.099243 488.817871,541.579834 492.328156,538.769226 
	C503.113678,530.133606 513.930542,521.530273 524.926025,513.165161 
	C549.312012,494.612854 573.930176,476.364044 598.216858,457.683533 
	C609.227539,449.214478 619.674438,440.012451 630.668884,430.901123 
	C629.199097,429.587769 628.331787,428.812805 626.920288,427.570526 
M936.428711,333.071167 
	C926.266296,324.006622 916.201477,314.829285 905.903259,305.921692 
	C900.155334,300.949799 894.012329,296.435394 888.061768,291.696716 
	C884.460205,288.828674 881.103027,289.378235 877.542603,291.979736 
	C865.658752,300.662598 853.581177,309.082428 841.762512,317.851959 
	C822.984314,331.785583 804.365845,345.934326 785.659119,359.964539 
	C771.356628,370.691559 756.979004,381.319031 742.728699,392.114807 
	C738.554016,395.277435 735.222229,400.189362 730.602112,402.007904 
	C716.867676,407.414032 708.085083,419.381012 695.900635,426.711823 
	C693.652771,428.064209 693.459534,430.311676 695.627991,432.116852 
	C701.014282,436.600586 706.391479,441.104248 711.941956,445.379639 
	C724.289307,454.890442 736.837830,464.141724 749.129639,473.722839 
	C776.321350,494.917969 803.402405,516.255005 830.535461,537.525513 
	C837.022278,542.610718 837.554260,542.653687 844.374329,538.036438 
	C847.267151,536.078003 850.081482,533.990784 852.826538,531.828796 
	C883.424072,507.729614 913.919495,483.499634 944.625000,459.538849 
	C956.468018,450.297211 964.147217,439.494690 962.055603,423.567993 
	C961.567627,419.852203 962.388306,415.972809 962.521790,412.165710 
	C963.027649,397.734314 964.431458,383.179504 960.695496,369.024872 
	C956.891602,354.613037 947.098389,343.888702 936.428711,333.071167 
M797.596985,848.072693 
	C802.111511,844.553101 806.626099,841.033447 811.861877,836.951599 
	C802.956116,829.716858 795.242188,823.182129 787.236816,817.026367 
	C779.985168,811.450073 772.213135,806.545044 765.021179,800.897583 
	C732.014709,774.979370 699.122070,748.916077 666.218689,722.866821 
	C663.143188,720.432007 660.543152,719.947693 657.632507,723.225952 
	C655.433655,725.702515 652.835999,727.863708 650.235413,729.939148 
	C608.572021,763.188049 566.877563,796.398254 525.197754,829.626648 
	C522.410645,831.848633 519.683167,834.145569 516.608093,836.670227 
	C521.881165,841.164551 526.417358,845.332825 531.258972,849.109619 
	C568.423401,878.100464 605.648438,907.013672 642.851501,935.955078 
	C648.503662,940.351990 654.115173,944.801575 659.792542,949.165649 
	C662.603210,951.326050 665.004395,951.675781 668.046082,948.748657 
	C673.070679,943.913452 678.594971,939.564331 684.131348,935.299561 
	C721.735840,906.332153 759.398621,877.440491 797.596985,848.072693 
M761.040955,182.322662 
	C758.510315,188.296951 755.766846,194.191345 753.488281,200.260269 
	C746.215698,219.630112 739.252991,239.116821 731.908875,258.459076 
	C725.144653,276.274048 717.972656,293.933777 711.107544,311.711029 
	C703.394592,331.683685 695.770813,351.691315 688.224121,371.727356 
	C685.946106,377.775177 684.054199,383.968414 681.985474,390.095062 
	C682.303955,390.418915 682.622498,390.742798 682.941040,391.066650 
	C685.927063,389.534882 689.198914,388.387115 691.854370,386.411133 
	C714.824707,369.318848 737.587280,351.946655 760.602905,334.916168 
	C785.226501,316.695831 810.078918,298.785034 834.786560,280.677887 
	C843.864258,274.025238 852.940186,267.357452 861.764282,260.377350 
	C865.766907,257.211151 868.715881,253.263763 866.019714,247.448074 
	C865.091614,245.446259 865.442322,242.890839 864.907959,240.660400 
	C862.768677,231.730957 861.790588,222.244629 858.036865,214.037354 
	C849.645447,195.690216 834.316406,182.734589 819.954834,169.165497 
	C816.707275,166.097092 813.679810,162.795410 810.558289,159.594025 
	C806.140930,155.063599 802.038147,150.166016 797.246338,146.075012 
	C789.651428,139.591049 783.096252,140.724075 778.156921,149.436203 
	C772.182434,159.974197 766.770630,170.831207 761.040955,182.322662 
z"/>
<path fill="#6ABE4B" opacity="1.000000" stroke="none" 
	d="
M666.932007,1384.979248 
	C663.839478,1384.925537 659.963989,1386.069580 657.772949,1384.637085 
	C628.855774,1365.732056 596.611572,1354.006592 564.943054,1341.034668 
	C545.219788,1332.955811 526.599426,1323.082275 511.868958,1307.268799 
	C501.164124,1295.776978 492.505127,1282.798950 487.437500,1267.849609 
	C483.804108,1257.131104 479.994598,1246.256836 478.339691,1235.142944 
	C476.648987,1223.788696 476.990204,1212.042480 477.327545,1200.493652 
	C478.086578,1174.511719 487.447296,1151.465576 502.920013,1130.852783 
	C521.571960,1106.004517 545.713928,1086.930054 569.893433,1067.928101 
	C598.424438,1045.506348 626.951843,1023.079895 655.498474,1000.678040 
	C657.589417,999.037292 659.823608,997.579163 662.439758,996.295288 
	C663.273254,998.010925 663.658203,999.467407 664.024902,1001.399353 
	C664.006104,1043.005859 663.993042,1084.136963 664.044434,1125.268066 
	C664.046814,1127.175293 664.626282,1129.081787 664.962402,1131.457397 
	C665.001160,1147.934326 665.014404,1163.942383 665.007141,1180.423584 
	C664.994385,1237.524902 664.993713,1294.153198 665.049316,1350.781494 
	C665.051025,1352.521606 665.637939,1354.261230 665.972534,1356.465088 
	C666.305908,1366.279175 666.618958,1375.629150 666.932007,1384.979248 
z"/>
<path fill="#079746" opacity="1.000000" stroke="none" 
	d="
M665.027649,1179.950562 
	C665.014404,1163.942383 665.001160,1147.934326 665.000061,1130.991455 
	C665.020508,1088.752563 665.040833,1047.448364 664.994873,1006.144287 
	C664.992920,1004.403809 664.374451,1002.664001 664.043152,1000.923889 
	C663.658203,999.467407 663.273254,998.010925 662.757446,996.199707 
	C666.469482,993.232056 668.822449,996.351746 671.226440,998.317688 
	C686.821838,1011.070923 702.210510,1024.078857 717.887939,1036.729492 
	C740.439392,1054.927246 763.468079,1072.543945 785.755432,1091.055908 
	C807.079895,1108.767944 825.392090,1129.154419 837.257019,1154.683228 
	C844.875305,1171.074951 848.388855,1188.220337 849.152771,1206.285156 
	C850.226013,1231.665894 845.044434,1255.375977 832.994629,1277.639893 
	C821.431091,1299.005371 805.347046,1316.110840 783.493408,1326.902100 
	C765.464722,1335.804688 746.956177,1343.776733 728.434631,1351.628906 
	C708.267517,1360.178711 689.153870,1370.567261 670.871765,1382.563110 
	C669.770569,1383.285645 668.700867,1384.056396 667.274292,1384.891968 
	C666.618958,1375.629150 666.305908,1366.279175 666.008667,1355.997681 
	C665.985535,1298.281982 665.953613,1241.497559 665.870850,1184.713257 
	C665.868530,1183.125366 665.320984,1181.538086 665.027649,1179.950562 
z"/>
<path fill="#58B54E" opacity="1.000000" stroke="none" 
	d="
M627.192383,427.804199 
	C628.331787,428.812805 629.199097,429.587769 630.668884,430.901123 
	C619.674438,440.012451 609.227539,449.214478 598.216858,457.683533 
	C573.930176,476.364044 549.312012,494.612854 524.926025,513.165161 
	C513.930542,521.530273 503.113678,530.133606 492.328156,538.769226 
	C488.817871,541.579834 486.053894,541.099243 482.636353,538.449890 
	C450.911621,513.856934 419.073212,489.410583 387.300720,464.879028 
	C381.076965,460.073639 374.557587,455.522644 369.027252,450.000397 
	C366.139069,447.116425 364.137360,442.541687 363.429321,438.438324 
	C361.763214,428.782776 360.796204,418.972412 360.156616,409.184814 
	C359.658478,401.561981 360.155396,393.878296 360.079651,386.222900 
	C359.834778,361.475128 371.117859,342.769440 389.995087,327.697388 
	C398.568024,320.852539 406.420197,313.110962 414.708710,305.901886 
	C421.126862,300.319580 427.646271,294.847748 434.259521,289.498505 
	C437.134491,287.173004 439.923889,288.190674 442.756134,290.251801 
	C458.007904,301.351288 473.437256,312.207794 488.642975,323.369385 
	C507.448151,337.173096 526.112488,351.169128 544.803345,365.128082 
	C560.443665,376.808838 576.084900,388.489624 591.631165,400.294891 
	C603.471008,409.285614 615.162720,418.471466 627.192383,427.804199 
z"/>
<path fill="#58B44F" opacity="1.000000" stroke="none" 
	d="
M936.679077,333.320618 
	C947.098389,343.888702 956.891602,354.613037 960.695496,369.024872 
	C964.431458,383.179504 963.027649,397.734314 962.521790,412.165710 
	C962.388306,415.972809 961.567627,419.852203 962.055603,423.567993 
	C964.147217,439.494690 956.468018,450.297211 944.625000,459.538849 
	C913.919495,483.499634 883.424072,507.729614 852.826538,531.828796 
	C850.081482,533.990784 847.267151,536.078003 844.374329,538.036438 
	C837.554260,542.653687 837.022278,542.610718 830.535461,537.525513 
	C803.402405,516.255005 776.321350,494.917969 749.129639,473.722839 
	C736.837830,464.141724 724.289307,454.890442 711.941956,445.379639 
	C706.391479,441.104248 701.014282,436.600586 695.627991,432.116852 
	C693.459534,430.311676 693.652771,428.064209 695.900635,426.711823 
	C708.085083,419.381012 716.867676,407.414032 730.602112,402.007904 
	C735.222229,400.189362 738.554016,395.277435 742.728699,392.114807 
	C756.979004,381.319031 771.356628,370.691559 785.659119,359.964539 
	C804.365845,345.934326 822.984314,331.785583 841.762512,317.851959 
	C853.581177,309.082428 865.658752,300.662598 877.542603,291.979736 
	C881.103027,289.378235 884.460205,288.828674 888.061768,291.696716 
	C894.012329,296.435394 900.155334,300.949799 905.903259,305.921692 
	C916.201477,314.829285 926.266296,324.006622 936.679077,333.320618 
M864.907593,437.956940 
	C863.625427,438.024078 862.343201,438.091217 861.061035,438.158356 
	C861.066345,438.343414 861.071655,438.528442 861.076965,438.713470 
	C870.039612,438.713470 879.002319,438.713470 887.964966,438.713470 
	C887.969238,438.461060 887.973450,438.208649 887.977661,437.956238 
	C880.588806,437.956238 873.200012,437.956238 864.907593,437.956940 
M950.282654,433.965210 
	C952.169556,433.965210 954.056396,433.965210 955.943298,433.965210 
	C955.939087,433.726837 955.934875,433.488495 955.930664,433.250122 
	C947.979919,433.250122 940.029236,433.250122 932.078552,433.250122 
	C932.075989,433.487915 932.073364,433.725739 932.070801,433.963531 
	C937.826904,433.963531 943.583069,433.963531 950.282654,433.965210 
z"/>
<path fill="#54B74F" opacity="1.000000" stroke="none" 
	d="
M829.825073,867.826660 
	C832.079468,865.204712 833.963318,862.103394 836.643250,860.031921 
	C886.318298,821.634521 936.029602,783.283325 985.871643,745.103088 
	C1002.105896,732.667236 1018.849426,720.897522 1035.136597,708.528870 
	C1044.467285,701.442993 1053.234375,693.619019 1062.475830,686.410217 
	C1067.901001,682.178223 1070.670410,683.196167 1071.895142,689.865540 
	C1073.859741,700.564026 1075.208252,711.374207 1077.073608,722.092590 
	C1081.501953,747.538330 1083.392578,773.169861 1081.901001,798.937012 
	C1079.801880,835.200073 1071.903564,870.127014 1055.887207,902.940125 
	C1053.867798,907.077393 1050.998657,910.799927 1047.795898,914.871643 
	C1038.621582,916.571411 1030.029663,917.568359 1021.755615,919.763245 
	C1000.307678,925.452637 978.979553,931.599304 957.643799,937.703979 
	C946.038025,941.024658 934.514160,944.631531 922.540527,948.074280 
	C919.680115,947.309265 916.788269,947.161560 914.888611,945.712891 
	C912.028687,943.531799 909.943481,940.361694 907.387695,937.750244 
	C896.222473,926.342285 885.542175,914.385193 873.669617,903.763367 
	C859.599609,891.175476 844.486267,879.753784 829.825073,867.826660 
z"/>
<path fill="#64BD4C" opacity="1.000000" stroke="none" 
	d="
M334.930481,700.931091 
	C328.165222,695.627136 321.159088,690.598755 314.695465,684.949707 
	C306.560150,677.839478 300.023163,669.437500 297.021942,658.772888 
	C293.466248,646.138000 289.121887,633.647461 286.700043,620.796509 
	C284.888855,611.185547 285.230255,601.102661 285.230133,591.229919 
	C285.229828,567.175659 295.064209,546.657959 309.014435,527.793396 
	C318.117676,515.483215 327.410248,503.312622 336.671265,491.119934 
	C338.553101,488.642426 340.359467,485.925720 342.791199,484.110321 
	C344.478729,482.850464 347.707825,481.855164 349.326080,482.640869 
	C354.158905,484.987274 358.740906,487.997253 363.060699,491.229462 
	C391.413879,512.443970 419.786072,533.636230 447.932556,555.123169 
	C482.856873,581.784363 517.576843,608.713379 552.356140,635.564148 
	C554.984741,637.593506 557.382324,639.921936 559.772400,642.738220 
	C554.894409,644.671509 549.911011,645.460083 545.407593,647.376648 
	C528.460510,654.589050 511.704529,662.248474 494.810822,669.588135 
	C478.527893,676.662476 462.552734,684.767761 445.716064,690.146729 
	C431.222137,694.777344 415.808472,697.295410 400.610687,698.738892 
	C385.686676,700.156372 370.518951,699.222290 355.465088,698.944763 
	C350.055908,698.845093 344.671783,697.610107 339.266663,696.974548 
	C336.397095,696.637146 334.823517,697.911011 334.930481,700.931091 
z"/>
<path fill="#55B851" opacity="1.000000" stroke="none" 
	d="
M274.997711,913.892151 
	C270.016754,901.513733 264.139130,889.408264 260.269379,876.691650 
	C254.756287,858.574951 249.584167,840.203552 246.398865,821.576233 
	C243.759247,806.140259 243.911835,790.186523 243.388962,774.443481 
	C243.060898,764.566223 242.887268,754.535034 244.206528,744.784241 
	C246.653305,726.699829 247.170105,708.250977 253.119904,690.740601 
	C253.677979,689.098083 254.604935,687.581055 255.863297,684.957886 
	C262.718994,689.923706 269.171722,694.400696 275.414886,699.152893 
	C307.218292,723.361694 338.814880,747.844849 370.775696,771.843323 
	C407.906952,799.724304 445.362549,827.172974 482.613556,854.895020 
	C486.872925,858.064819 490.722076,861.785767 494.727600,865.845337 
	C491.347717,869.159546 488.056885,871.951050 484.646698,874.588135 
	C459.410004,894.104370 435.221527,914.808167 412.891266,937.633362 
	C410.384949,940.195251 407.680145,942.562927 405.043640,945.034241 
	C405.019836,945.047852 404.989380,945.093323 404.657471,944.918518 
	C402.788910,944.168518 401.291687,943.433167 399.709351,943.043457 
	C386.085419,939.687561 372.313232,936.856201 358.839874,932.982910 
	C333.089050,925.580017 307.510956,917.576965 281.842499,909.885376 
	C279.883759,909.298401 277.777039,909.205078 275.368866,908.823730 
	C275.209686,910.997131 275.103699,912.444641 274.997711,913.892151 
z"/>
<path fill="#129043" opacity="1.000000" stroke="none" 
	d="
M797.319824,848.298523 
	C759.398621,877.440491 721.735840,906.332153 684.131348,935.299561 
	C678.594971,939.564331 673.070679,943.913452 668.046082,948.748657 
	C665.004395,951.675781 662.603210,951.326050 659.792542,949.165649 
	C654.115173,944.801575 648.503662,940.351990 642.851501,935.955078 
	C605.648438,907.013672 568.423401,878.100464 531.258972,849.109619 
	C526.417358,845.332825 521.881165,841.164551 516.608093,836.670227 
	C519.683167,834.145569 522.410645,831.848633 525.197754,829.626648 
	C566.877563,796.398254 608.572021,763.188049 650.235413,729.939148 
	C652.835999,727.863708 655.433655,725.702515 657.632507,723.225952 
	C660.543152,719.947693 663.143188,720.432007 666.218689,722.866821 
	C699.122070,748.916077 732.014709,774.979370 765.021179,800.897583 
	C772.213135,806.545044 779.985168,811.450073 787.236816,817.026367 
	C795.242188,823.182129 802.956116,829.716858 811.861877,836.951599 
	C806.626099,841.033447 802.111511,844.553101 797.319824,848.298523 
z"/>
<path fill="#66BD4C" opacity="1.000000" stroke="none" 
	d="
M773.672729,638.687073 
	C775.212952,636.597107 776.382202,634.035950 778.348877,632.487549 
	C810.256958,607.365540 842.159668,582.234131 874.291077,557.399170 
	C894.571655,541.723999 915.296692,526.625244 935.688232,511.091827 
	C946.406311,502.927216 956.940979,494.511230 967.336243,485.939270 
	C970.786255,483.094421 973.484741,483.885742 975.976868,486.545837 
	C983.338318,494.403442 990.813965,502.185272 997.691711,510.456726 
	C1006.359131,520.880493 1015.178894,531.292664 1022.682739,542.543640 
	C1036.049316,562.584717 1039.699463,584.948425 1037.265015,608.869385 
	C1035.657349,624.666199 1031.311523,639.585693 1026.045776,654.516052 
	C1022.574585,654.885132 1019.586487,655.001160 1016.741150,655.699280 
	C998.110657,660.270447 979.562988,665.189636 960.885681,669.556641 
	C944.484924,673.391235 927.974670,676.773560 911.465637,680.123047 
	C901.279724,682.189575 891.020081,683.910217 880.760376,685.582458 
	C878.285461,685.985901 875.498047,686.174683 873.160095,685.460754 
	C837.760986,674.651245 806.760315,654.447693 773.672729,638.687073 
z"/>
<path fill="#0B8841" opacity="1.000000" stroke="none" 
	d="
M829.468262,867.866272 
	C844.486267,879.753784 859.599609,891.175476 873.669617,903.763367 
	C885.542175,914.385193 896.222473,926.342285 907.387695,937.750244 
	C909.943481,940.361694 912.028687,943.531799 914.888611,945.712891 
	C916.788269,947.161560 919.680115,947.309265 922.412415,948.379517 
	C923.164856,950.693665 923.110168,953.030579 924.187256,954.581238 
	C930.184509,963.215454 936.545837,971.595947 942.589417,980.198975 
	C944.981628,983.604309 946.875854,987.359497 948.996826,990.955322 
	C922.963196,1010.151245 896.911560,1029.322998 870.903503,1048.553589 
	C858.655884,1057.609619 846.437256,1066.706909 834.310608,1075.923828 
	C827.399841,1081.176514 826.816467,1080.961426 819.840393,1075.299805 
	C789.717224,1050.853149 759.462524,1026.568115 729.203308,1002.289734 
	C720.646545,995.424316 711.790527,988.928223 703.318298,981.962952 
	C699.902039,979.154358 697.147217,975.541443 693.860962,972.049683 
	C705.243408,963.431030 716.188354,955.373474 726.886230,947.000183 
	C758.882690,921.956543 790.771790,896.775818 822.745972,871.703735 
	C824.674683,870.191345 826.980957,869.160645 829.468262,867.866272 
z"/>
<path fill="#1DA04B" opacity="1.000000" stroke="none" 
	d="
M773.308838,638.734497 
	C806.760315,654.447693 837.760986,674.651245 873.160095,685.460754 
	C875.498047,686.174683 878.285461,685.985901 880.760376,685.582458 
	C891.020081,683.910217 901.279724,682.189575 911.465637,680.123047 
	C927.974670,676.773560 944.484924,673.391235 960.885681,669.556641 
	C979.562988,665.189636 998.110657,660.270447 1016.741150,655.699280 
	C1019.586487,655.001160 1022.574585,654.885132 1025.754272,654.739807 
	C1022.565186,669.250610 1013.257935,679.286133 1002.311462,688.275146 
	C989.544128,698.759399 977.373108,710.003540 964.270203,720.039062 
	C926.615540,748.878967 888.627747,777.284180 850.746399,805.827759 
	C848.092712,807.827332 844.962524,809.260010 842.538818,811.484558 
	C838.503723,815.187988 835.289307,813.813782 831.673340,810.888794 
	C812.646790,795.497559 793.489624,780.267578 774.468567,764.869629 
	C750.921021,745.807251 727.475342,726.619263 703.951538,707.527588 
	C700.470337,704.702454 696.801392,702.108643 692.466614,698.840271 
	C695.500977,696.148560 698.262451,693.364502 701.352417,691.011902 
	C722.137451,675.187317 742.957520,659.407898 763.866577,643.747742 
	C766.599426,641.700989 769.904724,640.418518 773.308838,638.734497 
z"/>
<path fill="#19A04B" opacity="1.000000" stroke="none" 
	d="
M335.067902,701.255615 
	C334.823517,697.911011 336.397095,696.637146 339.266663,696.974548 
	C344.671783,697.610107 350.055908,698.845093 355.465088,698.944763 
	C370.518951,699.222290 385.686676,700.156372 400.610687,698.738892 
	C415.808472,697.295410 431.222137,694.777344 445.716064,690.146729 
	C462.552734,684.767761 478.527893,676.662476 494.810822,669.588135 
	C511.704529,662.248474 528.460510,654.589050 545.407593,647.376648 
	C549.911011,645.460083 554.894409,644.671509 559.905640,643.040527 
	C584.504761,661.183472 608.855774,679.650940 634.013916,698.730591 
	C628.835815,703.564026 624.679688,708.094177 619.891846,711.810364 
	C579.377869,743.255615 538.748779,774.552551 498.153717,805.893311 
	C495.913513,807.622803 493.559326,809.223206 491.448792,811.098206 
	C487.405090,814.690552 483.854187,814.380249 479.544708,811.074402 
	C445.063599,784.623047 410.468567,758.319824 375.858215,732.037476 
	C362.373627,721.797607 348.760101,711.727539 335.067902,701.255615 
z"/>
<path fill="#087A3B" opacity="1.000000" stroke="none" 
	d="
M996.844727,1176.608521 
	C987.115662,1186.288452 978.071533,1196.805786 967.499451,1205.455200 
	C951.037170,1218.923462 933.797546,1231.493408 916.388123,1243.734131 
	C904.162842,1252.329590 891.116943,1259.759888 878.404846,1267.658081 
	C877.253235,1268.373535 875.863525,1268.705933 874.482239,1269.256958 
	C877.073242,1255.077271 880.378784,1241.519409 881.787903,1227.767334 
	C882.818848,1217.706177 881.394775,1207.388062 880.997559,1197.187134 
	C880.314697,1179.652344 876.491882,1162.646240 870.195068,1146.431885 
	C866.063477,1135.792603 859.815002,1125.964722 854.374817,1115.848511 
	C851.028870,1109.626709 849.071777,1107.707764 855.938171,1102.584595 
	C874.879517,1088.451904 893.836731,1074.339478 912.683655,1060.081421 
	C926.842590,1049.369873 940.647705,1038.182007 954.973083,1027.702026 
	C965.781860,1019.794556 977.164429,1012.671387 988.641479,1005.472412 
	C990.271790,1009.138184 991.666443,1012.492493 992.813843,1015.929321 
	C999.644958,1036.391235 1000.779297,1057.744019 1001.785339,1078.985596 
	C1002.458496,1093.197998 1001.651917,1107.516724 1000.868835,1121.752686 
	C999.862061,1140.056396 998.215576,1158.324829 996.844727,1176.608521 
z"/>
<path fill="#08793C" opacity="1.000000" stroke="none" 
	d="
M345.889893,1014.022766 
	C390.547607,1044.595947 433.948547,1076.865723 477.884216,1109.795654 
	C460.802612,1133.457764 449.474091,1157.852417 445.800415,1185.643433 
	C442.151031,1213.250977 444.044983,1240.323486 450.956635,1268.334839 
	C447.947205,1267.260376 445.242767,1266.822754 443.137695,1265.459595 
	C426.450684,1254.653076 409.470306,1244.233154 393.384125,1232.584106 
	C377.180145,1220.849976 361.764404,1208.005615 346.284180,1195.305176 
	C340.505981,1190.564575 335.521454,1184.856812 330.069183,1178.876831 
	C327.943451,1168.743408 325.923615,1159.322998 323.932251,1149.444580 
	C323.948761,1136.016479 323.936737,1123.046387 323.954773,1109.618408 
	C324.316895,1105.535034 324.655548,1101.910278 324.979767,1098.284058 
	C326.334320,1083.135376 327.456635,1067.961426 329.108459,1052.845337 
	C330.431213,1040.740356 334.109680,1029.223511 339.350586,1018.210999 
	C340.701965,1015.371399 342.529602,1013.578674 345.889893,1014.022766 
z"/>
<path fill="#52AF52" opacity="1.000000" stroke="none" 
	d="
M761.078125,181.936401 
	C766.770630,170.831207 772.182434,159.974197 778.156921,149.436203 
	C783.096252,140.724075 789.651428,139.591049 797.246338,146.075012 
	C802.038147,150.166016 806.140930,155.063599 810.558289,159.594025 
	C813.679810,162.795410 816.707275,166.097092 819.954834,169.165497 
	C834.316406,182.734589 849.645447,195.690216 858.036865,214.037354 
	C861.790588,222.244629 862.768677,231.730957 864.907959,240.660400 
	C865.442322,242.890839 865.091614,245.446259 866.019714,247.448074 
	C868.715881,253.263763 865.766907,257.211151 861.764282,260.377350 
	C852.940186,267.357452 843.864258,274.025238 834.786560,280.677887 
	C810.078918,298.785034 785.226501,316.695831 760.602905,334.916168 
	C737.587280,351.946655 714.824707,369.318848 691.854370,386.411133 
	C689.198914,388.387115 685.927063,389.534882 682.941040,391.066650 
	C682.622498,390.742798 682.303955,390.418915 681.985474,390.095062 
	C684.054199,383.968414 685.946106,377.775177 688.224121,371.727356 
	C695.770813,351.691315 703.394592,331.683685 711.107544,311.711029 
	C717.972656,293.933777 725.144653,276.274048 731.908875,258.459076 
	C739.252991,239.116821 746.215698,219.630112 753.488281,200.260269 
	C755.766846,194.191345 758.510315,188.296951 761.078125,181.936401 
z"/>
<path fill="#5CBA4F" opacity="1.000000" stroke="none" 
	d="
M531.956665,551.072632 
	C536.733154,547.030396 541.347717,542.776123 546.313538,538.981506 
	C571.320435,519.872742 596.569031,501.077118 621.419556,481.768372 
	C633.166138,472.641357 644.250977,462.657959 655.557129,452.971008 
	C660.533325,448.707458 661.446716,448.506958 666.913513,452.778595 
	C700.896362,479.332123 734.828308,505.950897 768.835205,532.473511 
	C774.081543,536.565247 779.749390,540.116394 784.998657,544.204590 
	C789.838745,547.974182 794.378113,552.129822 798.761719,556.483765 
	C793.413879,557.041626 788.196045,556.496643 783.321777,557.546387 
	C761.053284,562.342041 738.992371,568.158203 716.641296,572.497070 
	C696.601807,576.387268 676.507507,581.172607 655.737671,578.057617 
	C644.649475,576.394592 633.357666,575.796265 622.420349,573.478638 
	C596.425293,567.970215 570.568237,561.801941 544.702637,555.700073 
	C540.333252,554.669312 536.199341,552.640381 531.956665,551.072632 
z"/>
<path fill="#087739" opacity="1.000000" stroke="none" 
	d="
M607.010681,995.989624 
	C603.213623,999.148376 599.472717,1002.377563 595.610596,1005.454712 
	C565.021118,1029.827271 534.391541,1054.149658 503.831787,1078.559448 
	C501.089081,1080.750244 499.018433,1081.714722 495.633392,1079.246948 
	C477.034607,1065.687134 458.237457,1052.399414 439.519043,1039.003418 
	C420.347504,1025.283081 401.151184,1011.596863 382.054840,997.772583 
	C378.237610,995.009155 374.821899,991.691162 371.121094,987.905762 
	C372.148041,984.170532 372.539062,980.509766 374.526093,978.255981 
	C384.450409,966.998901 394.793518,956.111023 404.989380,945.093323 
	C404.989380,945.093323 405.019836,945.047852 405.496613,945.033081 
	C409.591766,945.283508 413.309998,945.102844 416.811981,945.887573 
	C436.625763,950.327454 456.528717,954.470520 476.136841,959.705261 
	C513.043518,969.558105 549.769409,980.087585 586.571594,990.331787 
	C593.381897,992.227539 600.197510,994.104187 607.010681,995.989624 
z"/>
<path fill="#189D4B" opacity="1.000000" stroke="none" 
	d="
M531.616272,551.137573 
	C536.199341,552.640381 540.333252,554.669312 544.702637,555.700073 
	C570.568237,561.801941 596.425293,567.970215 622.420349,573.478638 
	C633.357666,575.796265 644.649475,576.394592 655.737671,578.057617 
	C676.507507,581.172607 696.601807,576.387268 716.641296,572.497070 
	C738.992371,568.158203 761.053284,562.342041 783.321777,557.546387 
	C788.196045,556.496643 793.413879,557.041626 798.899536,556.790894 
	C802.551086,559.199097 805.776550,561.668518 810.121216,564.994812 
	C803.218994,570.740051 797.421936,575.894348 791.291077,580.615173 
	C751.572815,611.199036 711.744629,641.640198 672.045654,672.248962 
	C663.968079,678.476990 663.269775,678.749878 655.437988,672.648132 
	C613.389709,639.887756 571.336426,607.133606 529.317200,574.335938 
	C524.994324,570.961853 520.885498,567.313416 516.159607,563.359009 
	C520.808105,558.374939 525.076172,553.662048 531.616272,551.137573 
z"/>
<path fill="#71C04C" opacity="1.000000" stroke="none" 
	d="
M611.158691,209.901947 
	C606.588135,198.347382 602.048645,186.780396 597.437256,175.242157 
	C593.785889,166.106094 590.414124,156.831024 586.208557,147.953888 
	C583.655945,142.565964 585.753906,139.318054 589.100647,135.645447 
	C603.556824,119.781548 621.665039,108.745674 639.506531,97.380768 
	C646.031067,93.224670 652.772644,89.339867 659.721130,85.960205 
	C661.874695,84.912720 665.605835,84.966217 667.649414,86.163422 
	C690.326599,99.448326 714.005066,111.381264 731.888672,131.461304 
	C733.646973,133.435516 735.309692,135.543793 736.698486,137.786896 
	C738.876221,141.304169 739.421753,144.982864 737.816711,149.080688 
	C732.114746,163.638397 726.691650,178.305313 720.987976,192.862320 
	C719.309448,197.146286 717.051392,201.203171 714.526917,205.707611 
	C709.165771,207.778061 704.295715,209.399155 699.515198,211.251556 
	C684.159424,217.201828 668.319092,218.079224 652.121399,216.290070 
	C640.504761,215.006958 629.284607,212.536392 618.835083,207.116623 
	C615.318481,205.292694 612.539124,205.727051 611.158691,209.901947 
z"/>
<path fill="#0C9946" opacity="1.000000" stroke="none" 
	d="
M607.335205,995.895447 
	C600.197510,994.104187 593.381897,992.227539 586.571594,990.331787 
	C549.769409,980.087585 513.043518,969.558105 476.136841,959.705261 
	C456.528717,954.470520 436.625763,950.327454 416.811981,945.887573 
	C413.309998,945.102844 409.591766,945.283508 405.520386,945.019531 
	C407.680145,942.562927 410.384949,940.195251 412.891266,937.633362 
	C435.221527,914.808167 459.410004,894.104370 484.646698,874.588135 
	C488.056885,871.951050 491.347717,869.159546 494.864807,866.145264 
	C497.701324,867.505615 500.517578,868.960815 503.009613,870.844849 
	C537.376465,896.827271 571.766724,922.779785 605.988953,948.951782 
	C615.869568,956.508118 625.235779,964.737183 635.832214,973.478149 
	C625.803467,981.424683 616.731567,988.612976 607.335205,995.895447 
z"/>
<path fill="#34A648" opacity="1.000000" stroke="none" 
	d="
M323.903748,1149.902710 
	C325.923615,1159.322998 327.943451,1168.743408 329.986145,1178.534912 
	C326.671997,1176.053467 322.472748,1173.772217 320.141418,1170.253418 
	C307.349792,1150.946899 294.510040,1131.638184 282.669617,1111.745239 
	C271.260895,1092.577637 262.779205,1071.906494 256.205261,1050.599487 
	C251.276810,1034.625610 246.823563,1018.451477 243.265244,1002.125366 
	C240.382568,988.899231 239.131027,975.316345 237.188400,961.887024 
	C236.167664,954.830750 235.063965,947.779907 234.342453,940.691589 
	C234.165054,938.948669 235.336395,937.068420 236.359131,933.697327 
	C255.084122,947.404419 273.082031,960.591614 291.093475,973.760376 
	C309.222290,987.014954 327.364502,1000.251160 345.695374,1013.759094 
	C342.529602,1013.578674 340.701965,1015.371399 339.350586,1018.210999 
	C334.109680,1029.223511 330.431213,1040.740356 329.108459,1052.845337 
	C327.456635,1067.961426 326.334320,1083.135376 324.979767,1098.284058 
	C324.655548,1101.910278 324.316895,1105.535034 323.671967,1109.910156 
	C323.254639,1123.171997 323.138794,1135.684448 323.082703,1148.196899 
	C323.080170,1148.764282 323.617737,1149.334106 323.903748,1149.902710 
z"/>
<path fill="#38A54B" opacity="1.000000" stroke="none" 
	d="
M997.178223,1176.607788 
	C998.215576,1158.324829 999.862061,1140.056396 1000.868835,1121.752686 
	C1001.651917,1107.516724 1002.458496,1093.197998 1001.785339,1078.985596 
	C1000.779297,1057.744019 999.644958,1036.391235 992.813843,1015.929321 
	C991.666443,1012.492493 990.271790,1009.138184 988.988159,1005.361572 
	C991.048706,1002.819153 992.835876,1000.275696 995.220032,998.563599 
	C1014.469299,984.741333 1033.853882,971.107544 1053.148560,957.348206 
	C1062.881104,950.407715 1072.457275,943.246887 1082.231812,936.367065 
	C1084.522339,934.755005 1087.329956,933.877686 1090.696045,932.285706 
	C1089.674072,942.529602 1089.084595,951.841675 1087.751953,961.046143 
	C1085.415283,977.184448 1082.840454,993.295593 1079.970947,1009.347595 
	C1075.666260,1033.426514 1067.708618,1056.387573 1058.001221,1078.786133 
	C1043.732910,1111.708374 1024.646973,1141.722168 1003.002747,1170.197876 
	C1001.303223,1172.433716 999.348022,1174.475220 997.178223,1176.607788 
z"/>
<path fill="#35A154" opacity="1.000000" stroke="none" 
	d="
M581.671997,233.055679 
	C601.626709,286.069458 621.581482,339.083191 642.029907,393.408569 
	C638.820190,391.830475 636.139893,390.971558 633.996399,389.386688 
	C615.642456,375.816864 597.256531,362.284088 579.142700,348.397797 
	C565.728333,338.114166 552.768738,327.239471 539.489441,316.776764 
	C527.869751,307.621613 516.151733,298.588013 504.358704,289.657135 
	C491.097748,279.614655 477.656189,269.810730 464.390564,259.774323 
	C458.739990,255.499268 457.695831,251.141693 460.645630,243.353683 
	C468.798340,243.353073 476.243408,243.877365 483.694183,243.978394 
	C495.432007,244.137558 507.231720,244.743576 518.898804,243.818268 
	C532.846313,242.712051 546.722107,240.439896 560.549255,238.184235 
	C567.679321,237.021103 574.636658,234.799179 581.671997,233.055679 
z"/>
<path fill="#73C14E" opacity="1.000000" stroke="none" 
	d="
M581.601624,232.696960 
	C574.636658,234.799179 567.679321,237.021103 560.549255,238.184235 
	C546.722107,240.439896 532.846313,242.712051 518.898804,243.818268 
	C507.231720,244.743576 495.432007,244.137558 483.694183,243.978394 
	C476.243408,243.877365 468.798340,243.353073 460.917175,243.015854 
	C457.645599,231.922256 461.177490,221.588028 465.461182,211.864761 
	C471.907410,197.232651 483.461700,186.485474 495.273163,176.006805 
	C502.686127,169.430328 509.246490,161.897324 516.256897,154.860733 
	C519.738770,151.365875 523.053345,147.579346 527.017761,144.721268 
	C532.142456,141.026764 539.811462,142.819046 543.607422,148.728455 
	C548.418823,156.218643 553.210815,163.862091 556.780762,171.980515 
	C565.073914,190.839676 572.632629,210.021866 580.471802,229.080246 
	C580.904968,230.133347 581.181702,231.250778 581.601624,232.696960 
z"/>
<path fill="#369F55" opacity="1.000000" stroke="none" 
	d="
M611.132935,210.296326 
	C612.539124,205.727051 615.318481,205.292694 618.835083,207.116623 
	C629.284607,212.536392 640.504761,215.006958 652.121399,216.290070 
	C668.319092,218.079224 684.159424,217.201828 699.515198,211.251556 
	C704.295715,209.399155 709.165771,207.778061 714.362610,206.029663 
	C700.128113,243.322189 685.531738,280.638428 670.917542,317.947723 
	C668.643372,323.753601 666.315674,329.539001 663.952332,335.309143 
	C663.297546,336.907776 662.425415,338.417389 661.164612,340.948303 
	C658.205139,333.463867 655.659973,327.043884 653.127502,320.618896 
	C648.952148,310.025940 644.730530,299.450806 640.628784,288.829407 
	C636.074890,277.037292 631.674927,265.185791 627.132385,253.389221 
	C621.837402,239.638962 616.456177,225.921951 611.140320,212.179703 
	C610.971924,211.744232 611.111267,211.189713 611.132935,210.296326 
z"/>
<path fill="#0F9745" opacity="1.000000" stroke="none" 
	d="
M404.657471,944.918518 
	C394.793518,956.111023 384.450409,966.998901 374.526093,978.255981 
	C372.539062,980.509766 372.148041,984.170532 371.007507,987.587036 
	C362.021759,981.517822 353.015930,975.090271 344.084625,968.560791 
	C326.029846,955.361633 307.987274,942.145325 290.001556,928.852295 
	C284.469238,924.763367 278.455780,921.102783 275.140137,914.224121 
	C275.103699,912.444641 275.209686,910.997131 275.368866,908.823730 
	C277.777039,909.205078 279.883759,909.298401 281.842499,909.885376 
	C307.510956,917.576965 333.089050,925.580017 358.839874,932.982910 
	C372.313232,936.856201 386.085419,939.687561 399.709351,943.043457 
	C401.291687,943.433167 402.788910,944.168518 404.657471,944.918518 
z"/>
<path fill="#119A47" opacity="1.000000" stroke="none" 
	d="
M949.320190,990.839600 
	C946.875854,987.359497 944.981628,983.604309 942.589417,980.198975 
	C936.545837,971.595947 930.184509,963.215454 924.187256,954.581238 
	C923.110168,953.030579 923.164856,950.693665 922.825195,948.414551 
	C934.514160,944.631531 946.038025,941.024658 957.643799,937.703979 
	C978.979553,931.599304 1000.307678,925.452637 1021.755615,919.763245 
	C1030.029663,917.568359 1038.621582,916.571411 1047.480713,915.003235 
	C1039.353882,922.207397 1031.105469,929.818176 1022.219360,936.592346 
	C999.387024,953.997986 976.273132,971.034241 953.265503,988.209839 
	C952.088501,989.088440 950.852295,989.887695 949.320190,990.839600 
z"/>
<path fill="#55B851" opacity="1.000000" stroke="none" 
	d="
M665.007141,1180.423584 
	C665.320984,1181.538086 665.868530,1183.125366 665.870850,1184.713257 
	C665.953613,1241.497559 665.985535,1298.281982 665.988281,1355.533691 
	C665.637939,1354.261230 665.051025,1352.521606 665.049316,1350.781494 
	C664.993713,1294.153198 664.994385,1237.524902 665.007141,1180.423584 
z"/>
<path fill="#5CBA4F" opacity="1.000000" stroke="none" 
	d="
M664.024902,1001.399353 
	C664.374451,1002.664001 664.992920,1004.403809 664.994873,1006.144287 
	C665.040833,1047.448364 665.020508,1088.752563 664.974609,1130.522705 
	C664.626282,1129.081787 664.046814,1127.175293 664.044434,1125.268066 
	C663.993042,1084.136963 664.006104,1043.005859 664.024902,1001.399353 
z"/>
<path fill="#73C14E" opacity="1.000000" stroke="none" 
	d="
M865.359375,437.956604 
	C873.200012,437.956238 880.588806,437.956238 887.977661,437.956238 
	C887.973450,438.208649 887.969238,438.461060 887.964966,438.713470 
	C879.002319,438.713470 870.039612,438.713470 861.076965,438.713470 
	C861.071655,438.528442 861.066345,438.343414 861.061035,438.158356 
	C862.343201,438.091217 863.625427,438.024078 865.359375,437.956604 
z"/>
<path fill="#73C14E" opacity="1.000000" stroke="none" 
	d="
M949.810913,433.964355 
	C943.583069,433.963531 937.826904,433.963531 932.070801,433.963531 
	C932.073364,433.725739 932.075989,433.487915 932.078552,433.250122 
	C940.029236,433.250122 947.979919,433.250122 955.930664,433.250122 
	C955.934875,433.488495 955.939087,433.726837 955.943298,433.965210 
	C954.056396,433.965210 952.169556,433.965210 949.810913,433.964355 
z"/>
<path fill="#52AF52" opacity="1.000000" stroke="none" 
	d="
M323.932251,1149.444580 
	C323.617737,1149.334106 323.080170,1148.764282 323.082703,1148.196899 
	C323.138794,1135.684448 323.254639,1123.171997 323.641907,1110.368042 
	C323.936737,1123.046387 323.948761,1136.016479 323.932251,1149.444580 
z"/>
</svg>