<svg version="1.1" id="Layer_1" xmlns="http://www.w3.org/2000/svg" xmlns:xlink="http://www.w3.org/1999/xlink" x="0px" y="0px"
	 width="100%" viewBox="0 0 1518 1518" enable-background="new 0 0 1518 1518" xml:space="preserve">
<path fill="#000000" opacity="1.000000" stroke="none" 
	d="
M892.000000,1519.000000 
	C594.666748,1519.000000 297.833435,1519.000000 1.000119,1519.000000 
	C1.000080,1013.000122 1.000080,507.000275 1.000040,1.000323 
	C506.999756,1.000216 1012.999512,1.000216 1518.999512,1.000108 
	C1518.999634,506.999664 1518.999634,1012.999329 1518.999756,1518.999512 
	C1310.166626,1519.000000 1101.333374,1519.000000 892.000000,1519.000000 
M679.998901,253.127060 
	C679.965210,252.629486 680.057312,252.081024 679.879639,251.641678 
	C672.982727,234.581421 666.460693,217.353714 658.995789,200.544846 
	C654.388184,190.169785 648.669556,180.237900 642.845581,170.467133 
	C636.820068,160.358200 626.546509,162.404099 620.411499,169.088470 
	C616.721313,173.109116 613.193726,177.294571 609.311829,181.120651 
	C599.383606,190.906082 589.260803,200.493896 579.284912,210.231476 
	C567.967957,221.278107 560.214050,234.305359 558.149536,250.196854 
	C557.600403,254.424255 558.118652,258.790314 557.971497,263.858337 
	C555.543579,270.035004 555.529602,275.580994 561.497314,280.037170 
	C575.686523,290.632355 589.846069,301.269470 603.895020,312.049408 
	C615.753418,321.148468 627.432312,330.481293 639.203369,339.694397 
	C655.115723,352.148956 670.963196,364.688202 686.982727,377.003571 
	C701.160950,387.903381 715.472290,398.633911 729.876587,409.232941 
	C732.939270,411.486511 736.658264,412.848206 740.074890,414.620789 
	C740.581543,414.048309 741.088135,413.475830 741.594727,412.903351 
	C738.070740,404.813538 734.308228,396.817505 731.081787,388.610718 
	C726.820557,377.771454 723.164612,366.694641 718.920288,355.848358 
	C709.474365,331.709229 699.701538,307.697632 690.317810,283.534637 
	C686.534058,273.791351 683.420349,263.787872 679.998901,253.127060 
M964.940186,268.307922 
	C964.291870,264.624756 963.820862,260.899506 962.958740,257.267090 
	C961.089233,249.390427 960.529785,240.703201 956.673340,233.916458 
	C951.077087,224.067871 943.494812,215.202301 935.911560,206.671234 
	C929.012207,198.909454 920.877563,192.257950 913.484558,184.918442 
	C908.322510,179.793640 903.436768,174.385208 898.527588,169.012100 
	C890.953674,160.722534 881.630432,159.620438 875.022827,171.346024 
	C868.948303,182.125702 863.063416,193.092926 858.182129,204.444931 
	C851.308533,220.430313 845.437988,236.846970 838.973572,253.812881 
	C819.132324,306.221802 799.291138,358.630707 779.057129,412.076965 
	C781.632141,411.756042 783.069702,411.960052 784.050293,411.384979 
	C787.400879,409.419983 790.701355,407.330688 793.824158,405.022461 
	C815.360535,389.104034 836.804199,373.059967 858.360962,357.169189 
	C883.240601,338.828857 908.216614,320.619263 933.128296,302.322266 
	C942.269897,295.608063 951.510925,289.011902 960.377808,281.949158 
	C964.227783,278.882446 967.280273,274.784729 964.940186,268.307922 
M708.207764,231.652222 
	C710.475830,236.911057 712.947266,242.092865 714.974060,247.443115 
	C721.181519,263.829376 727.109619,280.321747 733.351135,296.694794 
	C740.124939,314.464172 747.135803,332.143097 754.026978,349.867859 
	C755.586182,353.878357 757.077942,357.915100 759.003296,363.003510 
	C760.373413,360.710785 761.367981,359.445496 761.949646,358.012604 
	C769.342896,339.800446 776.782349,321.605896 784.000366,303.324036 
	C794.041199,277.892181 803.904785,252.390320 814.175171,226.277985 
	C816.807739,220.156067 819.643738,214.112183 822.029175,207.895416 
	C826.525513,196.177353 830.328125,184.172760 835.285706,172.660461 
	C837.857422,166.688324 837.817383,161.617661 834.107483,156.716019 
	C826.718750,146.953522 817.863098,138.611465 807.618652,131.921814 
	C795.706787,124.143372 783.550781,116.738525 771.488953,109.190346 
	C765.832642,105.650696 760.259583,103.688461 753.816101,107.962608 
	C744.967163,113.832397 735.470703,118.758667 726.831543,124.904335 
	C714.040405,134.003586 701.377747,143.370087 689.421814,153.519684 
	C683.534119,158.517853 681.077881,162.439636 684.238281,169.963806 
	C692.689636,190.084579 700.236206,210.585403 708.207764,231.652222 
M1047.699219,1012.680298 
	C1056.191895,1006.252441 1064.623535,999.741760 1073.190308,993.414368 
	C1090.214355,980.840820 1107.470825,968.575684 1124.311523,955.762939 
	C1132.282349,949.698547 1139.516724,942.666321 1147.667969,935.705383 
	C1155.007935,925.303528 1159.798462,913.689636 1164.128784,901.803467 
	C1174.208740,874.135315 1179.597534,845.471130 1180.747925,816.200562 
	C1181.422363,799.041138 1180.404053,781.710999 1178.746948,764.593201 
	C1177.060303,747.170959 1173.626709,729.919250 1171.014893,712.584351 
	C1169.619385,703.322510 1166.417236,701.946289 1159.007568,707.568481 
	C1158.348877,708.068420 1157.841187,708.763611 1157.199219,709.289978 
	C1149.185669,715.860107 1141.366699,722.689941 1133.094849,728.918091 
	C1116.066406,741.739624 1098.678589,754.083801 1081.655884,766.912903 
	C1065.264771,779.265930 1049.165039,792.005249 1032.904419,804.532410 
	C1018.734802,815.448669 1004.506836,826.289246 990.327515,837.192993 
	C972.234253,851.106567 954.102173,864.971252 936.142151,879.054932 
	C932.992004,881.525146 930.604858,884.968384 927.163574,888.033630 
	C925.161316,889.137146 922.968567,889.996399 921.188721,891.385010 
	C911.982239,898.567627 902.930542,905.948547 893.730530,913.139648 
	C883.003052,921.524658 872.119812,929.710938 861.409851,938.118103 
	C847.471497,949.059631 833.706238,960.222229 819.733398,971.118896 
	C810.579712,978.257446 801.190369,985.093689 791.996948,991.997559 
	C794.386475,998.509583 806.657959,1009.816467 818.231689,1016.663269 
	C822.467041,1020.095947 826.653198,1023.591614 830.946655,1026.949951 
	C845.258545,1038.144531 859.750671,1049.113770 873.906616,1060.501343 
	C889.497986,1073.043701 904.806702,1085.937866 920.209167,1098.714355 
	C923.655151,1101.572754 926.928040,1101.625244 930.554260,1098.940918 
	C969.363037,1070.210938 1008.208984,1041.531128 1047.699219,1012.680298 
M469.286621,1009.655884 
	C474.250977,1013.778687 479.007233,1018.187805 484.216431,1021.973694 
	C504.816437,1036.945190 525.569580,1051.706055 546.244141,1066.575073 
	C561.806458,1077.767456 577.309998,1089.041504 592.901550,1100.192749 
	C595.919373,1102.351074 599.008362,1103.056763 602.371094,1100.169434 
	C615.177917,1089.172974 627.861877,1078.007080 641.093567,1067.538696 
	C658.729309,1053.586060 676.862549,1040.263550 694.712769,1026.579834 
	C698.624451,1023.581055 702.243713,1020.200684 706.597168,1016.677856 
	C714.272522,1010.730469 721.964478,1004.804321 729.615356,998.825684 
	C732.818970,996.322144 734.435852,993.692200 730.086914,990.625183 
	C728.089417,989.216553 726.349915,987.448059 724.422119,985.933655 
	C712.150635,976.293762 699.954102,966.554932 687.549622,957.088989 
	C673.068176,946.037842 658.363098,935.280457 643.824158,924.304016 
	C633.603149,916.587463 623.530212,908.675110 613.329224,900.931763 
	C606.671814,895.878357 599.903442,890.970947 592.858398,885.392090 
	C591.557861,884.102234 590.390381,882.633789 588.935974,881.550476 
	C576.192444,872.058533 563.367554,862.675842 550.624512,853.183167 
	C526.974976,835.565857 503.331116,817.940552 479.747162,800.235596 
	C457.570007,783.586853 435.433136,766.883667 413.356262,750.102234 
	C400.431458,740.277588 387.703339,730.194458 374.799194,720.342285 
	C368.076691,715.209839 361.164337,710.325989 353.881897,704.996216 
	C352.604370,707.995300 351.411102,709.856201 351.019348,711.872803 
	C348.869965,722.937134 346.562836,733.989807 344.991974,745.142517 
	C343.274139,757.338806 341.658417,769.614685 341.180298,781.901917 
	C340.697754,794.302246 341.046051,806.814697 342.157440,819.176636 
	C343.476227,833.845520 345.197968,848.571899 348.177704,862.977051 
	C353.278290,887.635071 360.718079,911.648315 372.354156,934.854858 
	C374.885834,938.079407 376.899933,941.976074 380.047974,944.400208 
	C388.851501,951.179138 398.221405,957.216125 407.188446,963.790466 
	C420.533508,973.574890 433.679901,983.629883 446.999298,993.449707 
	C454.233154,998.783020 461.649933,1003.868103 469.286621,1009.655884 
M900.056946,850.066895 
	C900.056946,850.066895 900.187012,849.991150 899.844910,849.400818 
	C897.176331,846.924072 894.699951,844.191650 891.805359,842.015442 
	C879.987000,833.129761 867.904236,824.591980 856.177063,815.589661 
	C842.220398,804.875793 828.518494,793.829712 814.724731,782.904175 
	C798.101685,769.737549 781.488525,756.558228 764.895203,743.354126 
	C762.053711,741.092896 759.683228,740.055359 756.283875,743.031982 
	C747.623718,750.615234 738.679871,757.883850 729.688049,765.076477 
	C718.537720,773.995850 707.154785,782.624207 696.001648,791.540161 
	C684.843140,800.460327 673.897034,809.646057 662.761536,818.595581 
	C649.590149,829.181396 636.315552,839.638916 622.429382,850.298584 
	C619.707764,852.591553 616.986145,854.884521 613.750793,857.610352 
	C622.403259,865.005981 630.242920,872.114075 638.509216,878.685547 
	C654.419922,891.334412 670.546387,903.712769 686.630066,916.142883 
	C710.038574,934.234009 733.473145,952.291565 756.937134,970.310791 
	C760.434509,972.996704 763.940247,973.961975 767.089966,969.496948 
	C768.219177,967.896118 769.813049,966.555725 771.386902,965.346558 
	C783.845337,955.774414 796.364563,946.281433 808.837708,936.728394 
	C839.954041,912.896729 871.061340,889.053284 902.160156,865.198730 
	C911.220398,858.249146 911.071838,856.531433 900.870789,850.487061 
	C900.570862,850.305847 900.270935,850.124634 900.056946,850.066895 
M897.551147,576.078186 
	C894.568115,573.481323 891.717773,570.710815 888.580627,568.315796 
	C868.117737,552.694092 847.482605,537.296082 827.118835,521.546936 
	C806.618347,505.692139 786.539062,489.289246 765.916382,473.598083 
	C758.450562,467.917603 758.549622,468.604156 753.218628,474.273346 
	C752.306091,475.243744 751.410095,476.254181 750.374329,477.080566 
	C735.732300,488.762726 721.191223,500.576111 706.376221,512.035278 
	C688.729004,525.685242 670.785889,538.952087 653.084045,552.532166 
	C644.889526,558.818604 636.963013,565.454346 628.210754,572.025452 
	C623.278870,575.723755 618.347046,579.422119 612.647705,583.695923 
	C619.616150,589.704163 625.279480,595.004883 631.369019,599.759583 
	C650.043335,614.340576 668.949158,628.624878 687.637634,643.187988 
	C709.574402,660.282288 731.333252,677.604736 753.263977,694.706848 
	C760.316650,700.206787 761.611389,700.119080 769.030396,694.491943 
	C777.556030,688.025208 785.887390,681.303162 794.368835,674.777344 
	C810.532776,662.340637 826.703186,649.911438 842.946228,637.578430 
	C858.680725,625.631531 874.559753,613.874634 890.268433,601.894104 
	C895.236328,598.105225 899.979309,593.995850 904.598267,589.784180 
	C907.551758,587.091187 907.676880,584.164551 904.096558,581.569275 
	C901.960388,580.020813 899.989685,578.244019 897.551147,576.078186 
M1059.738525,460.598724 
	C1060.158813,450.513489 1060.582764,440.428375 1060.995361,430.342834 
	C1061.056641,428.846527 1060.877319,427.315857 1061.127563,425.855682 
	C1063.221558,413.638855 1061.967163,401.553070 1059.172729,389.667725 
	C1056.273926,377.338409 1048.730103,367.458130 1040.033325,358.763184 
	C1030.621948,349.353577 1020.422668,340.718079 1010.387207,331.950806 
	C1002.502197,325.062256 994.489929,318.296051 986.186035,311.929565 
	C984.478516,310.620422 980.680115,310.289673 978.790710,311.291199 
	C972.901367,314.412933 967.270630,318.125092 961.888611,322.082794 
	C941.728821,336.907257 921.705627,351.917633 901.635315,366.863739 
	C884.988342,379.260559 868.216003,391.494507 851.761597,404.141998 
	C844.175842,409.972687 837.216797,416.618744 829.216858,422.982452 
	C827.833923,423.473877 826.242554,423.677338 825.101746,424.503143 
	C817.269592,430.172455 809.497559,435.926666 801.778381,441.749207 
	C798.004639,444.595673 794.385864,447.647644 790.773315,450.545380 
	C798.098328,456.665466 804.264526,462.097321 810.720398,467.159760 
	C831.627136,483.553986 852.659424,499.788086 873.606750,516.130798 
	C892.097900,530.557312 910.541809,545.044495 929.002930,559.509583 
	C934.576172,563.876404 936.014099,564.189331 941.553284,560.065735 
	C952.873901,551.638062 964.013733,542.965637 975.162720,534.309814 
	C991.123535,521.918213 1007.192139,509.656860 1022.897156,496.947388 
	C1034.168457,487.825928 1045.032471,478.186646 1055.795288,468.465271 
	C1057.616333,466.820496 1058.004761,463.589630 1059.738525,460.598724 
M693.997192,424.337250 
	C690.700684,421.762756 687.427246,419.158142 684.103638,416.619171 
	C672.020264,407.388397 659.985046,398.092712 647.811768,388.981659 
	C626.604431,373.109070 605.361450,357.282990 584.030273,341.577484 
	C569.974121,331.228424 555.657715,321.232147 541.636719,310.836700 
	C538.074585,308.195618 535.200500,307.727264 531.796265,310.692749 
	C524.712585,316.863495 517.500793,322.887421 510.429352,329.071960 
	C499.148315,338.938110 487.590942,348.524017 476.794342,358.898590 
	C465.414520,369.833618 458.954071,383.763916 458.218658,399.458954 
	C457.552155,413.682983 458.544922,427.995331 459.077087,442.258606 
	C459.237671,446.563446 460.303223,450.834534 460.983978,455.973175 
	C460.006561,466.646484 467.322968,472.806610 474.255524,478.515869 
	C486.523376,488.618866 499.452515,497.917572 512.079041,507.586609 
	C535.013367,525.148987 557.914001,542.755432 580.870728,560.288452 
	C583.728210,562.470825 586.490601,563.540955 590.063965,560.648865 
	C597.591919,554.556213 605.598450,549.059570 613.295898,543.171021 
	C631.706055,529.087158 650.110718,514.994995 668.406067,500.762817 
	C688.866333,484.846619 709.203552,468.772308 730.827698,451.798676 
	C717.757263,442.241852 705.982483,433.632446 693.997192,424.337250 
M444.773468,1034.351929 
	C444.188568,1034.058105 443.543701,1033.844482 443.027496,1033.458740 
	C428.280945,1022.438293 413.611450,1011.313354 398.789764,1000.395081 
	C388.349823,992.704651 377.696533,985.304077 367.155579,977.750305 
	C357.810486,971.053345 348.533447,964.259705 339.105194,957.682434 
	C337.809998,956.778931 335.085999,956.033325 334.309723,956.703796 
	C333.035736,957.804199 332.125000,960.181458 332.267670,961.921326 
	C332.978760,970.592529 333.693329,979.296997 335.134552,987.867432 
	C337.795624,1003.692261 340.854950,1019.453247 343.945099,1035.202148 
	C349.440216,1063.207886 358.803802,1090.021118 371.467651,1115.464966 
	C380.747406,1134.109619 391.668579,1151.975586 402.516998,1169.787354 
	C409.270477,1180.875610 416.506866,1191.822388 427.298767,1200.614258 
	C429.700134,1203.358887 431.837585,1206.403442 434.551758,1208.792847 
	C443.120483,1216.336304 451.489807,1224.203735 460.687531,1230.916504 
	C484.588531,1248.360352 508.805328,1265.377319 533.107727,1282.260010 
	C537.662903,1285.424438 543.200073,1287.175415 549.529053,1290.167236 
	C548.882385,1286.750000 548.655396,1285.152588 548.273254,1283.593140 
	C544.281250,1267.301270 542.205017,1250.703857 542.188538,1233.999756 
	C542.178223,1223.473755 543.411316,1212.844482 545.159729,1202.441895 
	C547.992188,1185.589844 552.594788,1169.200806 561.704285,1154.432739 
	C565.787842,1147.812744 569.907104,1141.206177 573.675354,1134.407837 
	C574.403625,1133.093994 574.293396,1130.155273 573.347656,1129.265503 
	C568.048462,1124.279785 562.631775,1119.343506 556.781555,1115.033203 
	C536.943726,1100.417114 516.960510,1085.996460 496.930511,1071.643799 
	C479.724060,1059.314331 462.377502,1047.180420 444.773468,1034.351929 
M1085.513428,1026.154907 
	C1077.628296,1031.313354 1069.457642,1036.088257 1061.914795,1041.706421 
	C1043.483643,1055.434448 1025.388550,1069.612671 1007.072083,1083.496216 
	C989.810059,1096.580688 972.431396,1109.511230 955.117554,1122.527344 
	C948.137390,1127.774902 947.724792,1129.978638 952.372314,1137.539673 
	C955.231689,1142.191528 958.565247,1146.585938 961.070312,1151.415405 
	C970.474487,1169.545288 975.229126,1189.066040 978.113403,1209.177002 
	C981.013062,1229.395508 981.048889,1249.425537 976.181824,1269.385376 
	C974.495789,1276.299683 973.450745,1283.370361 972.113037,1290.369507 
	C972.503235,1290.618286 972.893494,1290.867065 973.283752,1291.115845 
	C977.562805,1288.385132 981.857544,1285.678711 986.118103,1282.919678 
	C1002.782532,1272.128296 1019.846863,1261.894043 1035.974365,1250.351562 
	C1051.019165,1239.583984 1065.310181,1227.709351 1079.426880,1215.725830 
	C1085.009888,1210.986450 1089.225830,1204.636841 1094.752808,1198.930908 
	C1095.568848,1198.393433 1096.623901,1198.031250 1097.165527,1197.292603 
	C1105.884888,1185.398193 1115.284668,1173.917358 1123.024536,1161.411011 
	C1133.359131,1144.711670 1142.718872,1127.379639 1151.896484,1110.001953 
	C1161.425171,1091.959595 1168.435425,1072.771118 1173.279907,1053.015381 
	C1177.720337,1034.908081 1180.673096,1016.424988 1183.954712,998.049194 
	C1185.655273,988.527466 1186.765381,978.893372 1187.915039,969.282898 
	C1188.546509,964.004089 1188.706055,958.668762 1189.155640,952.255920 
	C1184.726440,954.691040 1181.228149,956.182800 1178.208130,958.343018 
	C1154.322754,975.428345 1130.490723,992.588867 1106.729858,1009.847046 
	C1099.708252,1014.947144 1092.967163,1020.433716 1085.513428,1026.154907 
M1082.709961,724.755371 
	C1083.713623,724.203125 1084.875977,723.823975 1085.696655,723.072083 
	C1095.503784,714.087646 1105.623779,705.402222 1114.895874,695.891724 
	C1120.601929,690.039124 1124.537354,682.695190 1125.702881,673.700012 
	C1132.986328,652.840698 1137.707397,631.683533 1136.165894,609.264221 
	C1135.046509,592.985596 1130.895874,578.000977 1122.068237,564.323364 
	C1109.326294,544.580811 1093.534546,527.338318 1077.682251,510.133179 
	C1070.232910,502.048004 1068.769043,503.864899 1061.555298,509.195862 
	C1043.611084,522.456482 1026.192505,536.426025 1008.485840,550.010742 
	C990.404785,563.882812 972.165833,577.549377 954.123840,591.471497 
	C942.559570,600.395142 931.228821,609.621216 919.789185,618.706482 
	C908.601074,627.591980 897.334473,636.380798 886.248474,645.391907 
	C880.962402,649.688660 876.015137,654.402283 870.199707,659.009521 
	C866.157166,661.797180 862.027893,664.467896 858.086792,667.392212 
	C838.688171,681.786194 819.302795,696.198730 800.005432,710.727966 
	C796.339111,713.488403 793.091309,716.804871 789.962341,719.587402 
	C801.321411,729.129639 811.561157,737.940796 822.026428,746.475342 
	C838.977539,760.299133 856.059265,773.963074 873.118042,787.654297 
	C891.524536,802.427429 910.012573,817.099365 928.367981,831.935547 
	C933.792358,836.320007 935.872498,836.881836 941.261658,832.976685 
	C956.677856,821.805176 972.072266,810.598267 987.283508,799.150513 
	C1009.365967,782.531555 1031.375244,765.811707 1053.223877,748.887268 
	C1063.084595,741.248901 1072.482788,733.013367 1082.709961,724.755371 
M432.186249,721.616455 
	C433.593323,723.027466 434.856018,724.629456 436.430115,725.819458 
	C449.636597,735.803589 462.940155,745.659302 476.136627,755.656555 
	C493.396698,768.732239 510.589722,781.896484 527.804199,795.032288 
	C544.365051,807.669250 560.950867,820.273926 577.448547,832.992798 
	C581.719788,836.285767 585.264282,836.287537 589.677124,832.858582 
	C598.744995,825.812622 607.947144,818.939880 617.066650,811.960083 
	C630.637146,801.573792 644.237488,791.225281 657.726624,780.734192 
	C673.028931,768.832764 688.291138,756.877319 703.437561,744.778625 
	C712.057983,737.892761 720.437683,730.703796 728.869385,723.584473 
	C731.167297,721.644165 732.326782,719.470276 729.222900,717.066284 
	C713.253235,704.697205 697.369873,692.215515 681.323547,679.946899 
	C674.046509,674.383057 666.462097,669.221313 658.747803,663.273499 
	C647.877563,654.524231 637.141785,645.601074 626.107971,637.063171 
	C605.617920,621.208130 584.925110,605.615417 564.371216,589.842407 
	C547.582520,576.958923 530.923279,563.906677 514.115479,551.048340 
	C495.376801,536.712891 476.536560,522.510132 457.737640,508.253418 
	C450.145782,502.495911 443.765381,499.917877 438.099884,507.417633 
	C426.737701,522.458435 415.201416,537.370728 404.027283,552.549683 
	C392.565521,568.119446 384.837524,585.543091 383.248352,604.823364 
	C381.810730,622.265320 382.398865,639.910461 387.560516,656.889160 
	C390.863190,667.752930 395.087097,678.336670 399.023438,689.746704 
	C407.003418,703.291321 419.568878,712.015076 432.186249,721.616455 
M759.168030,1017.022339 
	C749.436096,1024.523804 739.656494,1031.964600 729.982483,1039.540161 
	C712.524597,1053.211304 695.265869,1067.140259 677.674561,1080.636597 
	C655.400330,1097.725586 633.275085,1114.938354 613.971680,1135.479736 
	C604.116760,1145.966675 595.673218,1157.432617 588.989014,1170.155029 
	C578.166199,1190.754761 573.973145,1212.706787 574.831116,1235.951782 
	C575.258728,1247.537598 576.214111,1258.919556 579.004639,1270.152832 
	C584.096436,1290.649780 592.888977,1309.294067 606.832153,1325.306152 
	C622.513794,1343.314819 642.939941,1354.119263 664.593689,1362.993530 
	C695.642334,1375.718506 727.263611,1387.194336 755.644287,1405.664307 
	C757.839966,1407.093140 761.277466,1406.613525 764.829529,1406.952271 
	C775.066833,1400.692993 784.859375,1393.501099 795.631653,1388.363281 
	C820.160828,1376.663818 845.180237,1365.993408 869.981689,1354.863037 
	C884.852722,1348.189087 898.712341,1339.740845 910.148254,1328.135864 
	C920.938721,1317.186035 929.674194,1304.616211 935.975220,1290.364258 
	C947.465332,1264.375366 950.316711,1237.544800 946.175964,1209.532227 
	C941.773315,1179.748169 927.588074,1155.129761 907.166992,1133.927856 
	C895.813782,1122.140503 883.500671,1111.194458 870.959045,1100.655884 
	C854.827637,1087.101074 838.042358,1074.323730 821.521057,1061.233765 
	C810.796021,1052.736206 799.947632,1044.391846 789.328796,1035.764282 
	C782.027710,1029.832275 775.087952,1023.457275 767.854065,1017.439758 
	C765.488770,1015.472107 762.754028,1013.075684 759.168030,1017.022339 
z"/>
<path fill="#6ABE4B" opacity="1.000000" stroke="none" 
	d="
M764.137817,1407.020874 
	C761.277466,1406.613525 757.839966,1407.093140 755.644287,1405.664307 
	C727.263611,1387.194336 695.642334,1375.718506 664.593689,1362.993530 
	C642.939941,1354.119263 622.513794,1343.314819 606.832153,1325.306152 
	C592.888977,1309.294067 584.096436,1290.649780 579.004639,1270.152832 
	C576.214111,1258.919556 575.258728,1247.537598 574.831116,1235.951782 
	C573.973145,1212.706787 578.166199,1190.754761 588.989014,1170.155029 
	C595.673218,1157.432617 604.116760,1145.966675 613.971680,1135.479736 
	C633.275085,1114.938354 655.400330,1097.725586 677.674561,1080.636597 
	C695.265869,1067.140259 712.524597,1053.211304 729.982483,1039.540161 
	C739.656494,1031.964600 749.436096,1024.523804 759.716248,1017.339050 
	C760.860535,1020.035583 761.948975,1022.409424 761.977600,1024.796021 
	C762.313843,1052.781616 762.558105,1080.768677 762.697937,1108.756104 
	C763.159973,1201.226562 763.568176,1293.697510 764.000488,1386.168213 
	C764.033020,1393.119141 764.091492,1400.069946 764.137817,1407.020874 
z"/>
<path fill="#079746" opacity="1.000000" stroke="none" 
	d="
M764.483704,1406.986572 
	C764.091492,1400.069946 764.033020,1393.119141 764.000488,1386.168213 
	C763.568176,1293.697510 763.159973,1201.226562 762.697937,1108.756104 
	C762.558105,1080.768677 762.313843,1052.781616 761.977600,1024.796021 
	C761.948975,1022.409424 760.860535,1020.035583 760.067749,1017.318054 
	C762.754028,1013.075684 765.488770,1015.472107 767.854065,1017.439758 
	C775.087952,1023.457275 782.027710,1029.832275 789.328796,1035.764282 
	C799.947632,1044.391846 810.796021,1052.736206 821.521057,1061.233765 
	C838.042358,1074.323730 854.827637,1087.101074 870.959045,1100.655884 
	C883.500671,1111.194458 895.813782,1122.140503 907.166992,1133.927856 
	C927.588074,1155.129761 941.773315,1179.748169 946.175964,1209.532227 
	C950.316711,1237.544800 947.465332,1264.375366 935.975220,1290.364258 
	C929.674194,1304.616211 920.938721,1317.186035 910.148254,1328.135864 
	C898.712341,1339.740845 884.852722,1348.189087 869.981689,1354.863037 
	C845.180237,1365.993408 820.160828,1376.663818 795.631653,1388.363281 
	C784.859375,1393.501099 775.066833,1400.692993 764.483704,1406.986572 
z"/>
<path fill="#54B74F" opacity="1.000000" stroke="none" 
	d="
M927.865417,887.962280 
	C930.604858,884.968384 932.992004,881.525146 936.142151,879.054932 
	C954.102173,864.971252 972.234253,851.106567 990.327515,837.192993 
	C1004.506836,826.289246 1018.734802,815.448669 1032.904419,804.532410 
	C1049.165039,792.005249 1065.264771,779.265930 1081.655884,766.912903 
	C1098.678589,754.083801 1116.066406,741.739624 1133.094849,728.918091 
	C1141.366699,722.689941 1149.185669,715.860107 1157.199219,709.289978 
	C1157.841187,708.763611 1158.348877,708.068420 1159.007568,707.568481 
	C1166.417236,701.946289 1169.619385,703.322510 1171.014893,712.584351 
	C1173.626709,729.919250 1177.060303,747.170959 1178.746948,764.593201 
	C1180.404053,781.710999 1181.422363,799.041138 1180.747925,816.200562 
	C1179.597534,845.471130 1174.208740,874.135315 1164.128784,901.803467 
	C1159.798462,913.689636 1155.007935,925.303528 1146.927002,935.853577 
	C1138.809692,937.076111 1131.255371,937.471130 1124.089355,939.348755 
	C1099.840332,945.702148 1075.709839,952.512329 1051.574219,959.291260 
	C1041.354980,962.161560 1031.235596,965.387878 1020.654175,968.518677 
	C1018.563293,968.664490 1016.888977,968.743958 1014.994629,968.573181 
	C993.062805,944.445374 970.464966,921.494629 945.002747,901.533508 
	C939.268188,897.037964 933.576721,892.487427 927.865417,887.962280 
z"/>
<path fill="#55B850" opacity="1.000000" stroke="none" 
	d="
M372.099579,934.266846 
	C360.718079,911.648315 353.278290,887.635071 348.177704,862.977051 
	C345.197968,848.571899 343.476227,833.845520 342.157440,819.176636 
	C341.046051,806.814697 340.697754,794.302246 341.180298,781.901917 
	C341.658417,769.614685 343.274139,757.338806 344.991974,745.142517 
	C346.562836,733.989807 348.869965,722.937134 351.019348,711.872803 
	C351.411102,709.856201 352.604370,707.995300 353.881897,704.996216 
	C361.164337,710.325989 368.076691,715.209839 374.799194,720.342285 
	C387.703339,730.194458 400.431458,740.277588 413.356262,750.102234 
	C435.433136,766.883667 457.570007,783.586853 479.747162,800.235596 
	C503.331116,817.940552 526.974976,835.565857 550.624512,853.183167 
	C563.367554,862.675842 576.192444,872.058533 588.935974,881.550476 
	C590.390381,882.633789 591.557861,884.102234 592.823608,885.972778 
	C591.949890,887.354736 591.171082,888.232544 590.263062,888.945923 
	C565.070801,908.736328 540.117126,928.795532 517.522339,951.609802 
	C512.888977,956.288147 507.851196,960.566040 502.638489,964.888733 
	C461.663635,955.544861 421.568268,944.499084 382.158081,931.007874 
	C380.598663,930.474060 378.933990,930.183350 377.293640,929.963989 
	C374.077118,929.533875 372.117340,930.764893 372.099579,934.266846 
z"/>
<path fill="#65BE4B" opacity="1.000000" stroke="none" 
	d="
M398.897980,689.045959 
	C395.087097,678.336670 390.863190,667.752930 387.560516,656.889160 
	C382.398865,639.910461 381.810730,622.265320 383.248352,604.823364 
	C384.837524,585.543091 392.565521,568.119446 404.027283,552.549683 
	C415.201416,537.370728 426.737701,522.458435 438.099884,507.417633 
	C443.765381,499.917877 450.145782,502.495911 457.737640,508.253418 
	C476.536560,522.510132 495.376801,536.712891 514.115479,551.048340 
	C530.923279,563.906677 547.582520,576.958923 564.371216,589.842407 
	C584.925110,605.615417 605.617920,621.208130 626.107971,637.063171 
	C637.141785,645.601074 647.877563,654.524231 658.473999,663.621460 
	C651.852783,665.838501 645.239502,667.088745 639.203979,669.683228 
	C612.349182,681.227356 585.656433,693.148682 558.911865,704.948914 
	C544.858276,711.149597 530.508118,716.225403 514.690552,716.515137 
	C509.221436,714.670715 504.080048,712.670471 498.755463,711.513550 
	C470.039764,705.274719 442.187103,696.307434 414.972260,685.318909 
	C409.966003,683.297546 405.507294,681.803223 401.938690,687.565796 
	C401.436859,688.376099 399.936279,688.567871 398.897980,689.045959 
z"/>
<path fill="#66BD4B" opacity="1.000000" stroke="none" 
	d="
M870.914429,658.927124 
	C876.015137,654.402283 880.962402,649.688660 886.248474,645.391907 
	C897.334473,636.380798 908.601074,627.591980 919.789185,618.706482 
	C931.228821,609.621216 942.559570,600.395142 954.123840,591.471497 
	C972.165833,577.549377 990.404785,563.882812 1008.485840,550.010742 
	C1026.192505,536.426025 1043.611084,522.456482 1061.555298,509.195862 
	C1068.769043,503.864899 1070.232910,502.048004 1077.682251,510.133179 
	C1093.534546,527.338318 1109.326294,544.580811 1122.068237,564.323364 
	C1130.895874,578.000977 1135.046509,592.985596 1136.165894,609.264221 
	C1137.707397,631.683533 1132.986328,652.840698 1125.021729,674.012817 
	C1108.477905,678.065796 1092.653809,681.980408 1076.743652,685.506531 
	C1050.926880,691.228210 1025.053223,696.693115 999.204712,702.271423 
	C991.438110,703.947571 983.675171,705.640991 975.513306,707.260986 
	C971.606628,706.194702 968.054504,705.322327 964.594727,704.172302 
	C940.647156,696.212463 918.899902,683.582703 896.625427,672.070374 
	C888.074890,667.651123 879.485901,663.306030 870.914429,658.927124 
z"/>
<path fill="#18A04B" opacity="1.000000" stroke="none" 
	d="
M514.933716,716.748596 
	C530.508118,716.225403 544.858276,711.149597 558.911865,704.948914 
	C585.656433,693.148682 612.349182,681.227356 639.203979,669.683228 
	C645.239502,667.088745 651.852783,665.838501 658.608643,663.923340 
	C666.462097,669.221313 674.046509,674.383057 681.323547,679.946899 
	C697.369873,692.215515 713.253235,704.697205 729.222900,717.066284 
	C732.326782,719.470276 731.167297,721.644165 728.869385,723.584473 
	C720.437683,730.703796 712.057983,737.892761 703.437561,744.778625 
	C688.291138,756.877319 673.028931,768.832764 657.726624,780.734192 
	C644.237488,791.225281 630.637146,801.573792 617.066650,811.960083 
	C607.947144,818.939880 598.744995,825.812622 589.677124,832.858582 
	C585.264282,836.287537 581.719788,836.285767 577.448547,832.992798 
	C560.950867,820.273926 544.365051,807.669250 527.804199,795.032288 
	C510.589722,781.896484 493.396698,768.732239 476.136627,755.656555 
	C462.940155,745.659302 449.636597,735.803589 436.430115,725.819458 
	C434.856018,724.629456 433.593323,723.027466 432.168579,720.971680 
	C433.938721,716.776672 437.092102,716.606873 440.313477,717.364319 
	C459.693756,721.920837 479.282440,721.659424 498.901031,719.811584 
	C504.293579,719.303650 509.592072,717.796997 514.933716,716.748596 
z"/>
<path fill="#189E4A" opacity="1.000000" stroke="none" 
	d="
M870.557068,658.968323 
	C879.485901,663.306030 888.074890,667.651123 896.625427,672.070374 
	C918.899902,683.582703 940.647156,696.212463 964.594727,704.172302 
	C968.054504,705.322327 971.606628,706.194702 975.649780,707.549683 
	C979.092957,709.728638 981.799072,712.080627 984.944458,713.293274 
	C1006.945801,721.775574 1029.843018,723.488159 1053.098999,721.412109 
	C1060.345703,720.765137 1067.483154,718.965637 1074.719604,718.107666 
	C1079.509033,717.539856 1082.355347,719.844238 1082.090820,725.048828 
	C1072.482788,733.013367 1063.084595,741.248901 1053.223877,748.887268 
	C1031.375244,765.811707 1009.365967,782.531555 987.283508,799.150513 
	C972.072266,810.598267 956.677856,821.805176 941.261658,832.976685 
	C935.872498,836.881836 933.792358,836.320007 928.367981,831.935547 
	C910.012573,817.099365 891.524536,802.427429 873.118042,787.654297 
	C856.059265,773.963074 838.977539,760.299133 822.026428,746.475342 
	C811.561157,737.940796 801.321411,729.129639 789.962341,719.587402 
	C793.091309,716.804871 796.339111,713.488403 800.005432,710.727966 
	C819.302795,696.198730 838.688171,681.786194 858.086792,667.392212 
	C862.027893,664.467896 866.157166,661.797180 870.557068,658.968323 
z"/>
<path fill="#07793B" opacity="1.000000" stroke="none" 
	d="
M1094.064209,1199.020508 
	C1089.225830,1204.636841 1085.009888,1210.986450 1079.426880,1215.725830 
	C1065.310181,1227.709351 1051.019165,1239.583984 1035.974365,1250.351562 
	C1019.846863,1261.894043 1002.782532,1272.128296 986.118103,1282.919678 
	C981.857544,1285.678711 977.562805,1288.385132 973.283752,1291.115845 
	C972.893494,1290.867065 972.503235,1290.618286 972.113037,1290.369507 
	C973.450745,1283.370361 974.495789,1276.299683 976.181824,1269.385376 
	C981.048889,1249.425537 981.013062,1229.395508 978.113403,1209.177002 
	C975.229126,1189.066040 970.474487,1169.545288 961.070312,1151.415405 
	C958.565247,1146.585938 955.231689,1142.191528 952.372314,1137.539673 
	C947.724792,1129.978638 948.137390,1127.774902 955.117554,1122.527344 
	C972.431396,1109.511230 989.810059,1096.580688 1007.072083,1083.496216 
	C1025.388550,1069.612671 1043.483643,1055.434448 1061.914795,1041.706421 
	C1069.457642,1036.088257 1077.628296,1031.313354 1085.957642,1026.282227 
	C1088.608032,1031.950806 1091.776611,1037.315430 1092.831421,1043.067871 
	C1095.489502,1057.566650 1098.038696,1072.181885 1099.051392,1086.859497 
	C1100.122681,1102.387329 1099.827881,1118.057007 1099.289795,1133.635742 
	C1098.677246,1151.370483 1097.204956,1169.078125 1095.945312,1186.786133 
	C1095.653442,1190.888062 1094.708618,1194.943604 1094.064209,1199.020508 
z"/>
<path fill="#07793B" opacity="1.000000" stroke="none" 
	d="
M445.092926,1034.959961 
	C462.377502,1047.180420 479.724060,1059.314331 496.930511,1071.643799 
	C516.960510,1085.996460 536.943726,1100.417114 556.781555,1115.033203 
	C562.631775,1119.343506 568.048462,1124.279785 573.347656,1129.265503 
	C574.293396,1130.155273 574.403625,1133.093994 573.675354,1134.407837 
	C569.907104,1141.206177 565.787842,1147.812744 561.704285,1154.432739 
	C552.594788,1169.200806 547.992188,1185.589844 545.159729,1202.441895 
	C543.411316,1212.844482 542.178223,1223.473755 542.188538,1233.999756 
	C542.205017,1250.703857 544.281250,1267.301270 548.273254,1283.593140 
	C548.655396,1285.152588 548.882385,1286.750000 549.529053,1290.167236 
	C543.200073,1287.175415 537.662903,1285.424438 533.107727,1282.260010 
	C508.805328,1265.377319 484.588531,1248.360352 460.687531,1230.916504 
	C451.489807,1224.203735 443.120483,1216.336304 434.551758,1208.792847 
	C431.837585,1206.403442 429.700134,1203.358887 427.117676,1199.935547 
	C425.295135,1190.957886 422.397461,1182.683228 422.237549,1174.355957 
	C421.656525,1144.100342 420.903229,1113.798096 424.988434,1083.657593 
	C426.985779,1068.921509 429.947937,1054.485107 435.989563,1040.785156 
	C437.817230,1036.640869 440.287262,1034.140747 445.092926,1034.959961 
z"/>
<path fill="#74C24A" opacity="1.000000" stroke="none" 
	d="
M460.954254,455.121063 
	C460.303223,450.834534 459.237671,446.563446 459.077087,442.258606 
	C458.544922,427.995331 457.552155,413.682983 458.218658,399.458954 
	C458.954071,383.763916 465.414520,369.833618 476.794342,358.898590 
	C487.590942,348.524017 499.148315,338.938110 510.429352,329.071960 
	C517.500793,322.887421 524.712585,316.863495 531.796265,310.692749 
	C535.200500,307.727264 538.074585,308.195618 541.636719,310.836700 
	C555.657715,321.232147 569.974121,331.228424 584.030273,341.577484 
	C605.361450,357.282990 626.604431,373.109070 647.811768,388.981659 
	C659.985046,398.092712 672.020264,407.388397 684.103638,416.619171 
	C687.427246,419.158142 690.700684,421.762756 693.636597,424.689362 
	C686.169312,426.508850 678.914124,427.475555 671.981506,429.530365 
	C642.010925,438.413300 612.309631,448.264252 582.138855,456.382538 
	C569.957153,459.660370 556.734863,461.067169 544.143494,460.391541 
	C521.116150,459.155945 498.220306,455.589783 475.234894,453.351929 
	C470.520264,452.892914 465.277222,451.156372 460.954254,455.121063 
z"/>
<path fill="#76C24C" opacity="1.000000" stroke="none" 
	d="
M829.973511,422.895081 
	C837.216797,416.618744 844.175842,409.972687 851.761597,404.141998 
	C868.216003,391.494507 884.988342,379.260559 901.635315,366.863739 
	C921.705627,351.917633 941.728821,336.907257 961.888611,322.082794 
	C967.270630,318.125092 972.901367,314.412933 978.790710,311.291199 
	C980.680115,310.289673 984.478516,310.620422 986.186035,311.929565 
	C994.489929,318.296051 1002.502197,325.062256 1010.387207,331.950806 
	C1020.422668,340.718079 1030.621948,349.353577 1040.033325,358.763184 
	C1048.730103,367.458130 1056.273926,377.338409 1059.172729,389.667725 
	C1061.967163,401.553070 1063.221558,413.638855 1061.127563,425.855682 
	C1060.877319,427.315857 1061.056641,428.846527 1060.995361,430.342834 
	C1060.582764,440.428375 1060.158813,450.513489 1059.180908,460.561218 
	C1057.237549,456.029327 1053.894531,454.210083 1049.510498,454.341431 
	C1041.040039,454.595245 1032.553467,454.809113 1024.114990,455.526672 
	C1008.875549,456.822510 993.694580,458.929138 978.438171,459.875031 
	C955.447937,461.300476 933.567322,455.424622 911.892700,448.541687 
	C884.621643,439.881500 857.283020,431.434235 829.973511,422.895081 
z"/>
<path fill="#1BA24A" opacity="1.000000" stroke="none" 
	d="
M623.085693,850.151978 
	C636.315552,839.638916 649.590149,829.181396 662.761536,818.595581 
	C673.897034,809.646057 684.843140,800.460327 696.001648,791.540161 
	C707.154785,782.624207 718.537720,773.995850 729.688049,765.076477 
	C738.679871,757.883850 747.623718,750.615234 756.283875,743.031982 
	C759.683228,740.055359 762.053711,741.092896 764.895203,743.354126 
	C781.488525,756.558228 798.101685,769.737549 814.724731,782.904175 
	C828.518494,793.829712 842.220398,804.875793 856.177063,815.589661 
	C867.904236,824.591980 879.987000,833.129761 891.805359,842.015442 
	C894.699951,844.191650 897.176331,846.924072 899.533325,849.711609 
	C893.588806,850.359924 887.839905,850.092163 882.344116,851.145081 
	C863.707642,854.715332 845.220215,859.077209 826.560181,862.507141 
	C812.175354,865.151123 797.678955,867.712097 783.120483,868.762756 
	C761.801758,870.301270 740.559875,867.908325 719.499512,864.374695 
	C696.350769,860.490662 673.256348,856.268921 650.068298,852.641602 
	C644.161560,851.717651 637.820923,851.627014 631.997803,852.771973 
	C627.932129,853.571289 625.322998,853.645813 623.085693,850.151978 
z"/>
<path fill="#5BBA4E" opacity="1.000000" stroke="none" 
	d="
M628.914978,571.931702 
	C636.963013,565.454346 644.889526,558.818604 653.084045,552.532166 
	C670.785889,538.952087 688.729004,525.685242 706.376221,512.035278 
	C721.191223,500.576111 735.732300,488.762726 750.374329,477.080566 
	C751.410095,476.254181 752.306091,475.243744 753.218628,474.273346 
	C758.549622,468.604156 758.450562,467.917603 765.916382,473.598083 
	C786.539062,489.289246 806.618347,505.692139 827.118835,521.546936 
	C847.482605,537.296082 868.117737,552.694092 888.580627,568.315796 
	C891.717773,570.710815 894.568115,573.481323 897.447388,576.502869 
	C890.939209,577.611511 884.413025,577.733765 878.153931,579.089172 
	C862.064514,582.573486 846.181091,587.038635 830.050842,590.297119 
	C813.273560,593.686218 796.397705,597.098022 779.394958,598.737366 
	C755.515991,601.039612 731.933472,597.379761 708.698608,591.639221 
	C690.616577,587.171875 672.514282,582.786316 654.428650,578.333252 
	C645.914795,576.237061 637.419006,574.067810 628.914978,571.931702 
z"/>
<path fill="#33A252" opacity="1.000000" stroke="none" 
	d="
M829.595215,422.938751 
	C857.283020,431.434235 884.621643,439.881500 911.892700,448.541687 
	C933.567322,455.424622 955.447937,461.300476 978.438171,459.875031 
	C993.694580,458.929138 1008.875549,456.822510 1024.114990,455.526672 
	C1032.553467,454.809113 1041.040039,454.595245 1049.510498,454.341431 
	C1053.894531,454.210083 1057.237549,456.029327 1058.839111,460.807617 
	C1058.004761,463.589630 1057.616333,466.820496 1055.795288,468.465271 
	C1045.032471,478.186646 1034.168457,487.825928 1022.897156,496.947388 
	C1007.192139,509.656860 991.123535,521.918213 975.162720,534.309814 
	C964.013733,542.965637 952.873901,551.638062 941.553284,560.065735 
	C936.014099,564.189331 934.576172,563.876404 929.002930,559.509583 
	C910.541809,545.044495 892.097900,530.557312 873.606750,516.130798 
	C852.659424,499.788086 831.627136,483.553986 810.720398,467.159760 
	C804.264526,462.097321 798.098328,456.665466 790.773315,450.545380 
	C794.385864,447.647644 798.004639,444.595673 801.778381,441.749207 
	C809.497559,435.926666 817.269592,430.172455 825.101746,424.503143 
	C826.242554,423.677338 827.833923,423.473877 829.595215,422.938751 
z"/>
<path fill="#33A252" opacity="1.000000" stroke="none" 
	d="
M460.969116,455.547119 
	C465.277222,451.156372 470.520264,452.892914 475.234894,453.351929 
	C498.220306,455.589783 521.116150,459.155945 544.143494,460.391541 
	C556.734863,461.067169 569.957153,459.660370 582.138855,456.382538 
	C612.309631,448.264252 642.010925,438.413300 671.981506,429.530365 
	C678.914124,427.475555 686.169312,426.508850 693.741943,425.032227 
	C705.982483,433.632446 717.757263,442.241852 730.827698,451.798676 
	C709.203552,468.772308 688.866333,484.846619 668.406067,500.762817 
	C650.110718,514.994995 631.706055,529.087158 613.295898,543.171021 
	C605.598450,549.059570 597.591919,554.556213 590.063965,560.648865 
	C586.490601,563.540955 583.728210,562.470825 580.870728,560.288452 
	C557.914001,542.755432 535.013367,525.148987 512.079041,507.586609 
	C499.452515,497.917572 486.523376,488.618866 474.255524,478.515869 
	C467.322968,472.806610 460.006561,466.646484 460.969116,455.547119 
z"/>
<path fill="#077C3B" opacity="1.000000" stroke="none" 
	d="
M622.757568,850.225281 
	C625.322998,853.645813 627.932129,853.571289 631.997803,852.771973 
	C637.820923,851.627014 644.161560,851.717651 650.068298,852.641602 
	C673.256348,856.268921 696.350769,860.490662 719.499512,864.374695 
	C740.559875,867.908325 761.801758,870.301270 783.120483,868.762756 
	C797.678955,867.712097 812.175354,865.151123 826.560181,862.507141 
	C845.220215,859.077209 863.707642,854.715332 882.344116,851.145081 
	C887.839905,850.092163 893.588806,850.359924 899.704346,850.006775 
	C900.187012,849.991150 900.056946,850.066895 900.198792,850.177734 
	C900.584900,850.520874 900.829163,850.753174 901.073486,850.985474 
	C911.071838,856.531433 911.220398,858.249146 902.160156,865.198730 
	C871.061340,889.053284 839.954041,912.896729 808.837708,936.728394 
	C796.364563,946.281433 783.845337,955.774414 771.386902,965.346558 
	C769.813049,966.555725 768.219177,967.896118 767.089966,969.496948 
	C763.940247,973.961975 760.434509,972.996704 756.937134,970.310791 
	C733.473145,952.291565 710.038574,934.234009 686.630066,916.142883 
	C670.546387,903.712769 654.419922,891.334412 638.509216,878.685547 
	C630.242920,872.114075 622.403259,865.005981 613.750793,857.610352 
	C616.986145,854.884521 619.707764,852.591553 622.757568,850.225281 
z"/>
<path fill="#07793B" opacity="1.000000" stroke="none" 
	d="
M705.997681,1016.996094 
	C702.243713,1020.200684 698.624451,1023.581055 694.712769,1026.579834 
	C676.862549,1040.263550 658.729309,1053.586060 641.093567,1067.538696 
	C627.861877,1078.007080 615.177917,1089.172974 602.371094,1100.169434 
	C599.008362,1103.056763 595.919373,1102.351074 592.901550,1100.192749 
	C577.309998,1089.041504 561.806458,1077.767456 546.244141,1066.575073 
	C525.569580,1051.706055 504.816437,1036.945190 484.216431,1021.973694 
	C479.007233,1018.187805 474.250977,1013.778687 469.135559,1008.942078 
	C470.183502,1004.873840 471.142822,1001.404175 472.678009,998.211365 
	C473.501740,996.498169 475.313660,995.259277 476.682770,993.809204 
	C485.455627,984.517639 494.229248,975.226807 503.466125,965.944824 
	C511.959839,967.117126 520.029480,968.064636 528.006042,969.521851 
	C533.068237,970.446594 537.931641,972.437683 542.986938,973.424500 
	C591.142944,982.825073 637.897400,997.480347 684.928467,1011.103699 
	C691.932800,1013.132629 698.973694,1015.035095 705.997681,1016.996094 
z"/>
<path fill="#189E4A" opacity="1.000000" stroke="none" 
	d="
M628.562866,571.978577 
	C637.419006,574.067810 645.914795,576.237061 654.428650,578.333252 
	C672.514282,582.786316 690.616577,587.171875 708.698608,591.639221 
	C731.933472,597.379761 755.515991,601.039612 779.394958,598.737366 
	C796.397705,597.098022 813.273560,593.686218 830.050842,590.297119 
	C846.181091,587.038635 862.064514,582.573486 878.153931,579.089172 
	C884.413025,577.733765 890.939209,577.611511 897.644165,576.748718 
	C899.989685,578.244019 901.960388,580.020813 904.096558,581.569275 
	C907.676880,584.164551 907.551758,587.091187 904.598267,589.784180 
	C899.979309,593.995850 895.236328,598.105225 890.268433,601.894104 
	C874.559753,613.874634 858.680725,625.631531 842.946228,637.578430 
	C826.703186,649.911438 810.532776,662.340637 794.368835,674.777344 
	C785.887390,681.303162 777.556030,688.025208 769.030396,694.491943 
	C761.611389,700.119080 760.316650,700.206787 753.263977,694.706848 
	C731.333252,677.604736 709.574402,660.282288 687.637634,643.187988 
	C668.949158,628.624878 650.043335,614.340576 631.369019,599.759583 
	C625.279480,595.004883 619.616150,589.704163 612.647705,583.695923 
	C618.347046,579.422119 623.278870,575.723755 628.562866,571.978577 
z"/>
<path fill="#07793B" opacity="1.000000" stroke="none" 
	d="
M1015.214722,968.823364 
	C1016.888977,968.743958 1018.563293,968.664490 1020.635742,968.971741 
	C1021.943237,972.126587 1022.260010,975.312561 1023.865906,977.589294 
	C1030.253174,986.644531 1037.179077,995.319397 1043.592651,1004.357117 
	C1045.312256,1006.780212 1045.924316,1009.989258 1047.044678,1012.837524 
	C1008.208984,1041.531128 969.363037,1070.210938 930.554260,1098.940918 
	C926.928040,1101.625244 923.655151,1101.572754 920.209167,1098.714355 
	C904.806702,1085.937866 889.497986,1073.043701 873.906616,1060.501343 
	C859.750671,1049.113770 845.258545,1038.144531 830.946655,1026.949951 
	C826.653198,1023.591614 822.467041,1020.095947 818.370605,1016.178894 
	C820.627625,1014.816650 822.672791,1013.578857 824.878357,1013.131714 
	C830.409607,1012.010315 836.094666,1011.588867 841.575500,1010.286865 
	C899.471252,996.533142 957.339172,982.662048 1015.214722,968.823364 
z"/>
<path fill="#70C04B" opacity="1.000000" stroke="none" 
	d="
M708.142334,230.935211 
	C700.236206,210.585403 692.689636,190.084579 684.238281,169.963806 
	C681.077881,162.439636 683.534119,158.517853 689.421814,153.519684 
	C701.377747,143.370087 714.040405,134.003586 726.831543,124.904335 
	C735.470703,118.758667 744.967163,113.832397 753.816101,107.962608 
	C760.259583,103.688461 765.832642,105.650696 771.488953,109.190346 
	C783.550781,116.738525 795.706787,124.143372 807.618652,131.921814 
	C817.863098,138.611465 826.718750,146.953522 834.107483,156.716019 
	C837.817383,161.617661 837.857422,166.688324 835.285706,172.660461 
	C830.328125,184.172760 826.525513,196.177353 822.029175,207.895416 
	C819.643738,214.112183 816.807739,220.156067 813.609497,226.608215 
	C809.084717,228.125443 805.010071,229.022324 801.184998,230.545807 
	C773.398682,241.612671 745.913574,240.007278 718.699402,228.651749 
	C714.356934,226.839767 710.791260,226.108047 708.142334,230.935211 
z"/>
<path fill="#0F9946" opacity="1.000000" stroke="none" 
	d="
M1014.994629,968.573120 
	C957.339172,982.662048 899.471252,996.533142 841.575500,1010.286865 
	C836.094666,1011.588867 830.409607,1012.010315 824.878357,1013.131714 
	C822.672791,1013.578857 820.627625,1014.816650 818.195679,1015.888794 
	C806.657959,1009.816467 794.386475,998.509583 791.996948,991.997559 
	C801.190369,985.093689 810.579712,978.257446 819.733398,971.118896 
	C833.706238,960.222229 847.471497,949.059631 861.409851,938.118103 
	C872.119812,929.710938 883.003052,921.524658 893.730530,913.139648 
	C902.930542,905.948547 911.982239,898.567627 921.188721,891.385010 
	C922.968567,889.996399 925.161316,889.137146 927.514526,887.997925 
	C933.576721,892.487427 939.268188,897.037964 945.002747,901.533508 
	C970.464966,921.494629 993.062805,944.445374 1014.994629,968.573120 
z"/>
<path fill="#0B9945" opacity="1.000000" stroke="none" 
	d="
M706.297424,1016.836914 
	C698.973694,1015.035095 691.932800,1013.132629 684.928467,1011.103699 
	C637.897400,997.480347 591.142944,982.825073 542.986938,973.424500 
	C537.931641,972.437683 533.068237,970.446594 528.006042,969.521851 
	C520.029480,968.064636 511.959839,967.117126 503.465363,965.718323 
	C503.001160,965.482788 502.999817,965.028503 502.999817,965.028564 
	C507.851196,960.566040 512.888977,956.288147 517.522339,951.609802 
	C540.117126,928.795532 565.070801,908.736328 590.263062,888.945923 
	C591.171082,888.232544 591.949890,887.354736 592.986816,886.275818 
	C599.903442,890.970947 606.671814,895.878357 613.329224,900.931763 
	C623.530212,908.675110 633.603149,916.587463 643.824158,924.304016 
	C658.363098,935.280457 673.068176,946.037842 687.549622,957.088989 
	C699.954102,966.554932 712.150635,976.293762 724.422119,985.933655 
	C726.349915,987.448059 728.089417,989.216553 730.086914,990.625183 
	C734.435852,993.692200 732.818970,996.322144 729.615356,998.825684 
	C721.964478,1004.804321 714.272522,1010.730469 706.297424,1016.836914 
z"/>
<path fill="#33A647" opacity="1.000000" stroke="none" 
	d="
M444.933197,1034.656006 
	C440.287262,1034.140747 437.817230,1036.640869 435.989563,1040.785156 
	C429.947937,1054.485107 426.985779,1068.921509 424.988434,1083.657593 
	C420.903229,1113.798096 421.656525,1144.100342 422.237549,1174.355957 
	C422.397461,1182.683228 425.295135,1190.957886 426.945282,1199.649902 
	C416.506866,1191.822388 409.270477,1180.875610 402.516998,1169.787354 
	C391.668579,1151.975586 380.747406,1134.109619 371.467651,1115.464966 
	C358.803802,1090.021118 349.440216,1063.207886 343.945099,1035.202148 
	C340.854950,1019.453247 337.795624,1003.692261 335.134552,987.867432 
	C333.693329,979.296997 332.978760,970.592529 332.267670,961.921326 
	C332.125000,960.181458 333.035736,957.804199 334.309723,956.703796 
	C335.085999,956.033325 337.809998,956.778931 339.105194,957.682434 
	C348.533447,964.259705 357.810486,971.053345 367.155579,977.750305 
	C377.696533,985.304077 388.349823,992.704651 398.789764,1000.395081 
	C413.611450,1011.313354 428.280945,1022.438293 443.027496,1033.458740 
	C443.543701,1033.844482 444.188568,1034.058105 444.933197,1034.656006 
z"/>
<path fill="#37A54A" opacity="1.000000" stroke="none" 
	d="
M1094.408447,1198.975708 
	C1094.708618,1194.943604 1095.653442,1190.888062 1095.945312,1186.786133 
	C1097.204956,1169.078125 1098.677246,1151.370483 1099.289795,1133.635742 
	C1099.827881,1118.057007 1100.122681,1102.387329 1099.051392,1086.859497 
	C1098.038696,1072.181885 1095.489502,1057.566650 1092.831421,1043.067871 
	C1091.776611,1037.315430 1088.608032,1031.950806 1086.249756,1026.076416 
	C1092.967163,1020.433716 1099.708252,1014.947144 1106.729858,1009.847046 
	C1130.490723,992.588867 1154.322754,975.428345 1178.208130,958.343018 
	C1181.228149,956.182800 1184.726440,954.691040 1189.155640,952.255920 
	C1188.706055,958.668762 1188.546509,964.004089 1187.915039,969.282898 
	C1186.765381,978.893372 1185.655273,988.527466 1183.954712,998.049194 
	C1180.673096,1016.424988 1177.720337,1034.908081 1173.279907,1053.015381 
	C1168.435425,1072.771118 1161.425171,1091.959595 1151.896484,1110.001953 
	C1142.718872,1127.379639 1133.359131,1144.711670 1123.024536,1161.411011 
	C1115.284668,1173.917358 1105.884888,1185.398193 1097.165527,1197.292603 
	C1096.623901,1198.031250 1095.568848,1198.393433 1094.408447,1198.975708 
z"/>
<path fill="#37A154" opacity="1.000000" stroke="none" 
	d="
M964.863953,269.159546 
	C967.280273,274.784729 964.227783,278.882446 960.377808,281.949158 
	C951.510925,289.011902 942.269897,295.608063 933.128296,302.322266 
	C908.216614,320.619263 883.240601,338.828857 858.360962,357.169189 
	C836.804199,373.059967 815.360535,389.104034 793.824158,405.022461 
	C790.701355,407.330688 787.400879,409.419983 784.050293,411.384979 
	C783.069702,411.960052 781.632141,411.756042 779.057129,412.076965 
	C799.291138,358.630707 819.132324,306.221802 839.484680,253.442261 
	C843.546021,253.714722 847.281860,253.853058 850.617798,255.079147 
	C883.365540,267.115204 917.345947,269.009979 951.752197,267.905762 
	C956.104919,267.766083 960.492493,268.714996 964.863953,269.159546 
z"/>
<path fill="#33A252" opacity="1.000000" stroke="none" 
	d="
M680.001648,253.902802 
	C683.420349,263.787872 686.534058,273.791351 690.317810,283.534637 
	C699.701538,307.697632 709.474365,331.709229 718.920288,355.848358 
	C723.164612,366.694641 726.820557,377.771454 731.081787,388.610718 
	C734.308228,396.817505 738.070740,404.813538 741.594727,412.903351 
	C741.088135,413.475830 740.581543,414.048309 740.074890,414.620789 
	C736.658264,412.848206 732.939270,411.486511 729.876587,409.232941 
	C715.472290,398.633911 701.160950,387.903381 686.982727,377.003571 
	C670.963196,364.688202 655.115723,352.148956 639.203369,339.694397 
	C627.432312,330.481293 615.753418,321.148468 603.895020,312.049408 
	C589.846069,301.269470 575.686523,290.632355 561.497314,280.037170 
	C555.529602,275.580994 555.543579,270.035004 558.505005,263.479370 
	C578.466675,263.737000 597.899475,264.980988 617.321594,264.831970 
	C635.182373,264.694916 652.715332,261.298737 669.813965,255.899979 
	C673.093140,254.864624 676.599915,254.549957 680.001648,253.902802 
z"/>
<path fill="#74C24A" opacity="1.000000" stroke="none" 
	d="
M964.902100,268.733734 
	C960.492493,268.714996 956.104919,267.766083 951.752197,267.905762 
	C917.345947,269.009979 883.365540,267.115204 850.617798,255.079147 
	C847.281860,253.853058 843.546021,253.714722 839.567139,253.075424 
	C845.437988,236.846970 851.308533,220.430313 858.182129,204.444931 
	C863.063416,193.092926 868.948303,182.125702 875.022827,171.346024 
	C881.630432,159.620438 890.953674,160.722534 898.527588,169.012100 
	C903.436768,174.385208 908.322510,179.793640 913.484558,184.918442 
	C920.877563,192.257950 929.012207,198.909454 935.911560,206.671234 
	C943.494812,215.202301 951.077087,224.067871 956.673340,233.916458 
	C960.529785,240.703201 961.089233,249.390427 962.958740,257.267090 
	C963.820862,260.899506 964.291870,264.624756 964.902100,268.733734 
z"/>
<path fill="#70C04B" opacity="1.000000" stroke="none" 
	d="
M680.000244,253.514923 
	C676.599915,254.549957 673.093140,254.864624 669.813965,255.899979 
	C652.715332,261.298737 635.182373,264.694916 617.321594,264.831970 
	C597.899475,264.980988 578.466675,263.737000 558.592712,263.096558 
	C558.118652,258.790314 557.600403,254.424255 558.149536,250.196854 
	C560.214050,234.305359 567.967957,221.278107 579.284912,210.231476 
	C589.260803,200.493896 599.383606,190.906082 609.311829,181.120651 
	C613.193726,177.294571 616.721313,173.109116 620.411499,169.088470 
	C626.546509,162.404099 636.820068,160.358200 642.845581,170.467133 
	C648.669556,180.237900 654.388184,190.169785 658.995789,200.544846 
	C666.460693,217.353714 672.982727,234.581421 679.879639,251.641678 
	C680.057312,252.081024 679.965210,252.629486 680.000244,253.514923 
z"/>
<path fill="#37A154" opacity="1.000000" stroke="none" 
	d="
M708.175049,231.293716 
	C710.791260,226.108047 714.356934,226.839767 718.699402,228.651749 
	C745.913574,240.007278 773.398682,241.612671 801.184998,230.545807 
	C805.010071,229.022324 809.084717,228.125443 813.444031,226.928436 
	C803.904785,252.390320 794.041199,277.892181 784.000366,303.324036 
	C776.782349,321.605896 769.342896,339.800446 761.949646,358.012604 
	C761.367981,359.445496 760.373413,360.710785 759.003296,363.003510 
	C757.077942,357.915100 755.586182,353.878357 754.026978,349.867859 
	C747.135803,332.143097 740.124939,314.464172 733.351135,296.694794 
	C727.109619,280.321747 721.181519,263.829376 714.974060,247.443115 
	C712.947266,242.092865 710.475830,236.911057 708.175049,231.293716 
z"/>
<path fill="#0D9644" opacity="1.000000" stroke="none" 
	d="
M502.638489,964.888672 
	C502.999817,965.028503 503.001160,965.482788 503.001923,965.709229 
	C494.229248,975.226807 485.455627,984.517639 476.682770,993.809204 
	C475.313660,995.259277 473.501740,996.498169 472.678009,998.211365 
	C471.142822,1001.404175 470.183502,1004.873840 468.984344,1008.646729 
	C461.649933,1003.868103 454.233154,998.783020 446.999298,993.449707 
	C433.679901,983.629883 420.533508,973.574890 407.188446,963.790466 
	C398.221405,957.216125 388.851501,951.179138 380.047974,944.400208 
	C376.899933,941.976074 374.885834,938.079407 372.226868,934.560852 
	C372.117340,930.764893 374.077118,929.533875 377.293640,929.963989 
	C378.933990,930.183350 380.598663,930.474060 382.158081,931.007874 
	C421.568268,944.499084 461.663635,955.544861 502.638489,964.888672 
z"/>
<path fill="#37A54A" opacity="1.000000" stroke="none" 
	d="
M1082.400391,724.902100 
	C1082.355347,719.844238 1079.509033,717.539856 1074.719604,718.107666 
	C1067.483154,718.965637 1060.345703,720.765137 1053.098999,721.412109 
	C1029.843018,723.488159 1006.945801,721.775574 984.944458,713.293274 
	C981.799072,712.080627 979.092957,709.728638 976.047119,707.615234 
	C983.675171,705.640991 991.438110,703.947571 999.204712,702.271423 
	C1025.053223,696.693115 1050.926880,691.228210 1076.743652,685.506531 
	C1092.653809,681.980408 1108.477905,678.065796 1124.714722,674.214417 
	C1124.537354,682.695190 1120.601929,690.039124 1114.895874,695.891724 
	C1105.623779,705.402222 1095.503784,714.087646 1085.696655,723.072083 
	C1084.875977,723.823975 1083.713623,724.203125 1082.400391,724.902100 
z"/>
<path fill="#0F9946" opacity="1.000000" stroke="none" 
	d="
M1047.371948,1012.758911 
	C1045.924316,1009.989258 1045.312256,1006.780212 1043.592651,1004.357117 
	C1037.179077,995.319397 1030.253174,986.644531 1023.865906,977.589294 
	C1022.260010,975.312561 1021.943237,972.126587 1021.052368,968.905396 
	C1031.235596,965.387878 1041.354980,962.161560 1051.574219,959.291260 
	C1075.709839,952.512329 1099.840332,945.702148 1124.089355,939.348755 
	C1131.255371,937.471130 1138.809692,937.076111 1146.635498,936.037109 
	C1139.516724,942.666321 1132.282349,949.698547 1124.311523,955.762939 
	C1107.470825,968.575684 1090.214355,980.840820 1073.190308,993.414368 
	C1064.623535,999.741760 1056.191895,1006.252441 1047.371948,1012.758911 
z"/>
<path fill="#54B74F" opacity="1.000000" stroke="none" 
	d="
M514.690552,716.515137 
	C509.592072,717.796997 504.293579,719.303650 498.901031,719.811584 
	C479.282440,721.659424 459.693756,721.920837 440.313477,717.364319 
	C437.092102,716.606873 433.938721,716.776672 432.017334,720.664551 
	C419.568878,712.015076 407.003418,703.291321 398.960693,689.396362 
	C399.936279,688.567871 401.436859,688.376099 401.938690,687.565796 
	C405.507294,681.803223 409.966003,683.297546 414.972260,685.318909 
	C442.187103,696.307434 470.039764,705.274719 498.755463,711.513550 
	C504.080048,712.670471 509.221436,714.670715 514.690552,716.515137 
z"/>
<path fill="#1BA24A" opacity="1.000000" stroke="none" 
	d="
M900.972168,850.736267 
	C900.829163,850.753174 900.584900,850.520874 900.155823,850.115967 
	C900.270935,850.124634 900.570862,850.305847 900.972168,850.736267 
z"/>
</svg>